<svg width="39" height="44" viewBox="0 0 39 44" fill="none" xmlns="http://www.w3.org/2000/svg">
<path d="M0.485199 43.9826C0.148976 43.7571 0.00963342 43.4675 0.0114099 43.0865C0.0199419 41.2567 -0.0291335 39.4254 0.0284721 37.5973C0.079915 35.9648 0.632853 34.4789 1.60438 33.1506C2.90412 31.3735 4.70208 30.4182 6.78775 29.8743C7.98784 29.5613 9.1602 29.1419 10.4048 28.7803C10.9393 29.3193 11.4171 29.8459 11.8881 30.3785C12.5664 31.1456 13.2666 31.8957 13.9084 32.6925C14.6769 33.6465 15.4177 33.9029 16.571 33.5188C17.3139 33.2714 18.0591 33.0306 18.7997 32.7764C18.9701 32.7179 19.1258 32.6166 19.3091 32.5334C19.358 32.5308 19.3859 32.5319 19.4336 32.5611C20.4519 32.921 21.4459 33.2689 22.4516 33.5788C22.6968 33.6544 22.9835 33.6364 23.2456 33.6087C24.2449 33.5032 24.7598 32.7242 25.3561 32.059C25.9829 31.3599 26.617 30.6674 27.2775 29.9848C27.4952 30.0635 27.6816 30.1354 27.872 30.1942C29.9243 30.8278 31.5112 32.0615 32.5981 33.9122C33.0826 34.7371 33.4951 35.6015 33.5044 36.5936C33.1611 36.7436 33.0029 36.9649 33.0049 37.3332C33.0175 39.5496 33.0134 41.7661 33.0149 43.9826C23.9325 43.9826 14.85 43.9826 5.72911 43.9423C5.69087 41.6996 5.68619 39.497 5.69666 37.2946C5.69826 36.9569 5.54539 36.6905 5.26694 36.6377C5.04594 36.5959 4.73801 36.7157 4.55566 36.8679C4.42745 36.975 4.40506 37.2568 4.40412 37.4609C4.39418 39.6347 4.39798 41.8087 4.39801 43.9826C3.10716 43.9826 1.81632 43.9826 0.485199 43.9826ZM8.67848 36.9286C8.19875 36.9517 8.0254 37.0902 8.01615 37.5181C8.00192 38.1766 7.99755 38.836 8.01846 39.4942C8.03293 39.9495 8.2156 40.1129 8.66389 40.1142C10.2535 40.1191 11.8432 40.1188 13.4328 40.1142C13.858 40.113 14.0213 39.9424 14.0252 39.5096C14.0309 38.8796 14.0286 38.2494 14.0263 37.6193C14.0243 37.0402 13.9104 36.9296 13.3131 36.929C11.795 36.9276 10.277 36.9285 8.67848 36.9286Z" fill="#F4D5C0"/>
<path d="M33.5352 36.5888C33.4952 35.6014 33.0826 34.7371 32.5982 33.9121C31.5113 32.0615 29.9244 30.8278 27.8721 30.1942C27.6817 30.1354 27.4953 30.0635 27.2832 29.9556C27.5729 29.5099 27.8864 29.1063 28.1999 28.7026C29.8984 29.2416 31.601 29.7678 33.2936 30.3245C34.275 30.6473 35.1273 31.1932 35.9127 31.8741C37.3609 33.1294 38.1778 34.7259 38.5777 36.5638C38.6492 36.8926 38.6775 37.2365 38.6793 37.5737C38.689 39.4197 38.7009 41.2661 38.6662 43.1115C38.6611 43.3844 38.4118 43.6526 38.2663 43.9528C36.9663 43.9825 35.6754 43.9825 34.3444 43.9423C34.3041 41.7323 34.3056 39.5627 34.303 37.3931C34.3024 36.8437 34.0981 36.6364 33.5352 36.5888Z" fill="#A18168"/>
<path d="M16.8394 0.0769367C16.8394 0.0769367 16.8434 0.0385741 16.8435 0.019287C18.3923 -8.0675e-08 19.941 -8.55751e-08 21.5299 3.61582e-10C22.1323 0.139171 22.6952 0.275427 23.2565 0.418089C24.649 0.772037 25.8851 1.43577 27.0178 2.30945C28.8334 3.7097 30.0459 5.52283 30.7815 7.68418C31.2744 9.13275 31.3157 10.621 31.2836 12.2022C31.2837 12.5623 31.2837 12.8431 31.2837 13.2509C30.5164 13.0086 29.8332 12.7928 29.1199 12.5636C28.9608 12.4904 28.8261 12.44 28.7033 12.3691C27.735 11.8101 26.8155 11.1964 26.29 10.1185C26.251 9.75711 26.2262 9.43036 26.165 9.11057C25.7054 6.70995 24.5932 4.66909 22.8063 2.99209C21.3348 1.61108 19.6133 0.716763 17.6544 0.263404C17.3828 0.200568 17.111 0.13906 16.8394 0.0769367Z" fill="black"/>
<path d="M4.5083 43.9998C4.46822 41.8258 4.46442 39.6519 4.47436 37.4781C4.47529 37.274 4.49768 36.9922 4.62589 36.8851C4.80825 36.7329 5.11618 36.613 5.33718 36.6549C5.61563 36.7077 5.7685 36.9741 5.76689 37.3118C5.75643 39.5142 5.76111 41.7168 5.75907 43.9595C5.35432 43.9998 4.95134 43.9998 4.5083 43.9998Z" fill="#3E1213"/>
<path d="M33.5752 36.6104C34.1688 36.6532 34.3731 36.8605 34.3737 37.4099C34.3763 39.5795 34.3748 41.7492 34.3748 43.9591C33.9718 43.9994 33.5688 43.9994 33.1257 43.9994C33.0842 41.7829 33.0883 39.5664 33.0757 37.35C33.0736 36.9816 33.2319 36.7604 33.5752 36.6104Z" fill="#3E1213"/>
<path d="M19.4843 32.552C19.4564 32.5488 19.4285 32.5477 19.3639 32.526C18.2837 31.5129 17.2356 30.5272 16.1982 29.5306C15.6256 28.9805 15.0709 28.412 14.5081 27.8519C15.1673 27.5196 15.4756 26.9775 15.4687 26.2465C15.4672 26.0909 15.4684 25.9352 15.4823 25.7081C15.62 24.904 15.6144 24.9147 14.9822 24.5849C13.4042 23.7616 12.1321 22.6049 11.182 21.0926C10.5843 20.1412 10.2064 19.1022 9.89237 17.9974C9.82893 16.6457 9.76606 15.3302 9.73975 14.0125C10.157 14.065 10.536 14.1431 10.9186 14.1706C13.4994 14.3556 15.975 13.8711 18.3849 12.9773C20.4172 12.2235 22.309 11.1952 24.1655 10.0698C24.2063 10.2499 24.2319 10.4044 24.2322 10.5589C24.235 12.3001 24.2312 14.0413 24.2349 15.7824C24.2374 16.9433 24.0851 18.0882 23.6579 19.1622C23.3187 20.0145 22.8419 20.8121 22.3917 21.6433C21.9663 21.7214 21.5778 21.8149 21.184 21.8539C20.1265 21.9585 19.4984 22.9471 20.1025 23.9732C19.1265 24.4407 18.1836 24.9046 17.1933 25.3919C18.6995 25.7411 20.1655 25.7345 21.6285 25.399C22.193 25.2696 22.7445 25.0831 23.3031 24.9596C23.3295 25.2046 23.3547 25.4126 23.3799 25.6206C23.3989 26.0009 23.3823 26.3872 23.4457 26.76C23.5288 27.2493 23.8429 27.5955 24.2953 27.8664C24.2128 28.0055 24.1164 28.11 24.0141 28.2082C22.5046 29.6566 20.9943 31.1042 19.4843 32.552Z" fill="#FFCFAB"/>
<path d="M19.5039 32.5778C20.9941 31.1039 22.5043 29.6563 24.0138 28.2079C24.1162 28.1097 24.2125 28.0052 24.3234 27.8766C24.7301 27.5287 25.1376 27.7479 25.5183 27.8572C26.4203 28.116 27.3097 28.4189 28.2371 28.7117C27.9566 29.1229 27.6431 29.5266 27.3239 29.9594C26.6873 30.684 26.0531 31.3765 25.4264 32.0757C24.83 32.7409 24.3152 33.5199 23.3159 33.6254C23.0538 33.653 22.7671 33.6711 22.5219 33.5955C21.5162 33.2855 20.5221 32.9377 19.5039 32.5778Z" fill="#3E1213"/>
<path d="M29.1501 12.5772C29.8333 12.7929 30.5165 13.0087 31.2838 13.251C31.2838 12.8432 31.2838 12.5624 31.2895 12.2422C31.7621 12.3504 32.2539 12.4677 32.4103 13.0296C32.473 13.2549 32.5589 13.4844 32.5631 13.7133C32.5805 14.6533 32.5978 15.5948 32.5624 16.5337C32.5293 17.41 32.2215 17.955 31.2814 18.0457C31.0611 18.0419 30.9116 18.0411 30.7365 18.0159C30.2718 18.0059 29.8327 18.0202 29.3585 18.0361C29.2298 18.0318 29.1364 18.026 29.0349 18.0077C29.0133 17.9798 28.9968 17.969 28.9717 17.9278C29.0216 17.3723 29.1138 16.8526 29.1256 16.3312C29.1538 15.0803 29.1443 13.8286 29.1501 12.5772Z" fill="#C68E7A"/>
<path d="M30.7613 18.04C30.9108 18.0409 31.0604 18.0417 31.2465 18.0503C31.2821 19.1148 31.2754 20.1716 31.282 21.2284C31.2898 22.4795 30.4368 23.7052 29.2355 24.0769C27.7834 24.5261 26.3002 24.8751 24.8296 25.2641C24.3711 25.3853 23.9098 25.4955 23.4146 25.6156C23.3543 25.4125 23.3291 25.2045 23.3262 24.9433C23.5478 24.7797 23.7604 24.6877 23.9442 24.5557C24.6466 24.0514 25.3398 23.5342 26.0373 23.0248C26.0382 23.0277 26.0325 23.0298 26.0509 23.0254C26.0936 23.0108 26.1116 22.9938 26.1581 22.9607C26.7132 22.8621 27.2355 22.783 27.7533 22.6815C29.2481 22.3887 30.2813 21.548 30.6295 20.0425C30.7782 19.3993 30.7235 18.709 30.7613 18.04Z" fill="black"/>
<path d="M24.1387 10.0443C22.3092 11.1953 20.4174 12.2236 18.3851 12.9773C15.9752 13.8711 13.4996 14.3557 10.9188 14.1706C10.5362 14.1431 10.1572 14.065 9.70939 14.0009C9.05815 13.8222 8.47266 13.6576 7.89033 13.4824C7.39728 13.3342 6.95113 13.1406 7.09292 12.4803C7.09977 12.4484 7.05844 12.4061 7.03955 12.3687C7.07068 11.4737 7.01272 10.564 7.15646 9.68745C7.32045 8.68747 7.58654 7.68739 7.94746 6.7404C8.52735 5.21884 9.49455 3.93373 10.7005 2.83675C11.7193 1.90995 12.8649 1.16346 14.1621 0.711394C15.0005 0.419199 15.8949 0.287737 16.8017 0.0805664C17.111 0.139009 17.3828 0.200518 17.6543 0.263354C19.6132 0.716712 21.3348 1.61103 22.8063 2.99204C24.5932 4.66904 25.7053 6.7099 26.1649 9.11052C26.2261 9.43031 26.251 9.75706 26.266 10.1007C26.0359 9.7562 25.8324 9.39155 25.6105 8.99384C25.1005 9.35785 24.6196 9.70107 24.1387 10.0443Z" fill="black"/>
<path d="M9.89367 18.0339C10.2072 19.1025 10.585 20.1414 11.1827 21.0928C12.1328 22.6052 13.405 23.7619 14.9829 24.5851C15.6151 24.915 15.6207 24.9042 15.4829 25.6691C13.5184 25.2123 11.5682 24.722 9.6172 24.2347C8.07922 23.8506 7.07228 22.6138 7.04978 21.0071C7.03598 20.0215 7.0468 19.0356 7.08077 18.0023C8.04121 17.9812 8.96744 18.0076 9.89367 18.0339Z" fill="black"/>
<path d="M14.4798 27.8369C15.0707 28.4122 15.6255 28.9807 16.198 29.5307C17.2355 30.5274 18.2836 31.5131 19.3429 32.5277C19.1962 32.6337 19.0405 32.735 18.8701 32.7935C18.1295 33.0477 17.3843 33.2885 16.6414 33.5359C15.4881 33.92 14.7473 33.6636 13.9789 32.7096C13.337 31.9128 12.6368 31.1628 11.9585 30.3956C11.4875 29.863 11.0097 29.3364 10.5093 28.7936C11.62 28.4143 12.7531 28.0375 13.8968 27.6959C14.0551 27.6486 14.2654 27.7755 14.4798 27.8369Z" fill="#3E1213"/>
<path d="M9.89279 17.9976C8.96713 18.0075 8.0409 17.9812 7.07877 17.9626C6.42546 17.6309 6.27687 17.0574 6.27432 16.4158C6.27076 15.5189 6.25335 14.6214 6.28093 13.7253C6.2976 13.1838 6.43969 12.6721 7.01259 12.3809C7.05866 12.4063 7.09999 12.4486 7.09314 12.4805C6.95135 13.1408 7.3975 13.3344 7.89055 13.4827C8.47288 13.6578 9.05837 13.8224 9.67304 14.0033C9.76647 15.3304 9.82935 16.6459 9.89279 17.9976Z" fill="#C68E7A"/>
<path d="M8.78981 36.9456C10.3481 36.9456 11.8661 36.9447 13.3841 36.9461C13.9815 36.9466 14.0954 37.0573 14.0974 37.6363C14.0996 38.2664 14.102 38.8966 14.0963 39.5267C14.0923 39.9595 13.9291 40.1301 13.5039 40.1313C11.9142 40.1359 10.3246 40.1362 8.73497 40.1313C8.28668 40.1299 8.10401 39.9665 8.08954 39.5112C8.06863 38.8531 8.073 38.1936 8.08723 37.5352C8.09648 37.1073 8.26983 36.9688 8.78981 36.9456Z" fill="#3E1213"/>
<path d="M24.1655 10.0697C24.6195 9.70087 25.1004 9.35765 25.6104 8.99365C25.8323 9.39136 26.0358 9.75601 26.2631 10.1384C26.8153 11.1961 27.7348 11.8099 28.7031 12.3689C28.8259 12.4398 28.9605 12.4901 29.1197 12.5634C29.144 13.8282 29.1535 15.0799 29.1252 16.3308C29.1134 16.8523 29.0213 17.3719 28.9656 17.9448C28.9656 17.9972 28.9653 18.0338 28.9502 18.0631C28.6416 19.2404 28.1839 20.3187 27.5343 21.3446C26.4391 21.5512 25.3705 21.74 24.2764 21.9139C23.7085 21.3587 23.0614 21.5375 22.4263 21.6338C22.842 20.8119 23.3188 20.0144 23.6579 19.162C24.0852 18.088 24.2375 16.9431 24.235 15.7823C24.2313 14.0411 24.2351 12.2999 24.2322 10.5587C24.232 10.4042 24.2063 10.2497 24.1655 10.0697Z" fill="#FA967A"/>
<path d="M22.3915 21.6436C23.0612 21.5379 23.7083 21.3591 24.2863 21.9439C24.607 22.3547 24.6206 22.7748 24.5452 23.2303C24.3341 23.6819 24.018 23.97 23.5488 24.0587C22.9071 24.18 22.2634 24.2905 21.6195 24.3997C21.0575 24.495 20.5433 24.4126 20.1353 23.97C19.4983 22.9473 20.1264 21.9588 21.1838 21.8541C21.5777 21.8152 21.9661 21.7216 22.3915 21.6436Z" fill="#3E1213"/>
<path d="M20.1026 23.9733C20.5436 24.4124 21.0578 24.4948 21.6197 24.3995C22.2636 24.2903 22.9074 24.1798 23.5491 24.0585C24.0183 23.9698 24.3343 23.6817 24.5831 23.2294C25.1047 23.1455 25.5708 23.0837 26.0368 23.022C25.3402 23.5343 24.6471 24.0515 23.9446 24.5558C23.7608 24.6878 23.5483 24.7799 23.3255 24.9065C22.7446 25.0832 22.1931 25.2697 21.6285 25.3991C20.1656 25.7346 18.6996 25.7412 17.1934 25.3919C18.1836 24.9047 19.1266 24.4407 20.1026 23.9733Z" fill="#FA967A"/>
<path d="M26.0378 23.0246C25.5708 23.0835 25.1047 23.1453 24.6011 23.2078C24.6209 22.7744 24.6073 22.3543 24.312 21.9583C25.3706 21.74 26.4392 21.5512 27.5714 21.3463C28.6678 21.1468 29.3645 20.3609 29.3988 19.32C29.4129 18.8919 29.3961 18.4629 29.3934 18.0342C29.8325 18.0199 30.2716 18.0055 30.7362 18.0155C30.724 18.7088 30.7787 19.3991 30.63 20.0424C30.2818 21.5479 29.2485 22.3886 27.7538 22.6814C27.236 22.7829 26.7137 22.862 26.1369 22.9596C26.0646 22.9885 26.0488 23.0091 26.033 23.0297C26.033 23.0297 26.0387 23.0276 26.0378 23.0246Z" fill="#C68E7A"/>
<path d="M29.3584 18.0358C29.3963 18.463 29.4131 18.8921 29.399 19.3201C29.3647 20.3611 28.668 21.147 27.5981 21.3285C28.1842 20.3188 28.6419 19.2405 28.9704 18.0628C29.0053 18.0331 29.0429 18.02 29.0429 18.02C29.1364 18.0258 29.2298 18.0315 29.3584 18.0358Z" fill="black"/>
</svg>
