<svg width="42" height="40" viewBox="0 0 42 40" fill="none" xmlns="http://www.w3.org/2000/svg">
<path d="M6.73312 26.3574C7.76498 26.4754 8.23267 27.2767 8.77948 27.9848C9.60441 29.0531 10.4203 30.1287 11.2735 31.1748C11.4225 31.3575 11.7326 31.4983 11.9745 31.5078C12.9297 31.5454 13.8874 31.5231 14.9041 31.5498C15.1813 31.5856 15.3988 31.5902 15.6156 31.605C15.8985 31.6243 16.2007 31.5962 16.4597 31.6858C17.286 31.9718 17.5991 32.5642 17.5612 33.6525C17.5412 34.2261 17.031 34.7922 16.317 35.0112C16.2694 35.0228 16.2516 35.0421 16.2441 35.0703C16.2446 35.0708 16.2447 35.0694 16.2108 35.069C16.0639 35.0711 15.951 35.0738 15.8164 35.0749C15.7804 35.0741 15.766 35.0749 15.7132 35.075C13.7568 35.0712 11.8388 35.0681 9.91212 35.0383C9.59548 34.7614 9.28265 34.5168 8.98193 34.2586C8.84764 34.1433 8.73768 34.0006 8.61302 33.8414C8.05054 32.9064 7.37367 32.0913 6.69892 31.2746C6.654 31.2923 6.60908 31.3101 6.56416 31.3279C6.56416 34.1878 6.56416 37.0477 6.56273 39.9241C6.5613 39.9406 6.55992 39.9737 6.52211 39.9795C4.80782 39.9864 3.13121 39.9765 1.45492 39.9949C0.934956 40.0006 0.452317 39.9872 0.122916 39.5139C0.108403 39.4931 0.0421512 39.507 0 39.5047C0 35.6601 0 31.8155 0 27.9331C0.0547828 27.8566 0.134593 27.8298 0.160574 27.7773C0.519513 27.052 1.05484 26.5537 1.96209 26.4448C2.4701 26.662 2.91632 26.8776 3.38529 27.1145C4.35514 27.3954 5.24248 27.2396 6.08056 26.7588C6.30207 26.6317 6.51581 26.4916 6.73312 26.3574Z" fill="#D1B7A0"/>
<path d="M40.0432 26.4346C40.9185 26.5338 41.4889 27.0233 41.8449 27.79C41.8709 27.8458 41.9184 27.892 41.9811 27.9189C42.0064 31.7398 42.0064 35.5844 41.9834 39.4435C41.687 39.6349 41.4275 39.9324 41.1376 39.9645C40.4783 40.0374 39.804 39.98 39.1542 39.9562C39.5554 39.7197 39.9517 39.4998 39.9524 38.9924C39.9575 35.5176 39.9704 32.0427 39.9408 28.5681C39.9355 27.936 39.6799 27.3426 39.0684 26.9834C39.405 26.7864 39.7241 26.6105 40.0432 26.4346Z" fill="#A18168"/>
<path d="M0.505745 11.2062C0.446552 10.9557 0.337199 10.7054 0.335924 10.4546C0.32316 7.94283 0.287322 5.43007 0.344067 2.91947C0.376182 1.49859 1.42938 0.364188 2.84874 0.0877097C3.21496 0.0163746 3.59774 0.00439544 3.97296 0.00395034C8.51121 -0.00143407 13.0495 -0.00202928 17.5877 0.00668524C17.8583 0.00720476 18.1287 0.0974888 18.4343 0.191048C18.5209 0.470441 18.616 0.704604 18.6171 0.939166C18.628 3.42427 18.6823 5.91124 18.6027 8.39392C18.5521 9.97401 17.2781 11.2542 15.6691 11.265C10.615 11.2986 5.56026 11.2332 0.505745 11.2062ZM4.02044 6.65151C4.12753 7.14453 4.27796 7.26829 4.79857 7.26847C8.59979 7.26978 12.401 7.26923 16.2022 7.269C16.2842 7.26899 16.3923 7.2982 16.4436 7.25835C16.6334 7.11102 16.9 6.96544 16.9529 6.77072C16.9965 6.61029 16.8181 6.34011 16.6634 6.19614C16.5474 6.08824 16.3128 6.07039 16.1307 6.06938C14.5173 6.06041 12.9038 6.06415 11.2903 6.06415C9.14357 6.06415 6.99683 6.06506 4.8501 6.06335C4.45581 6.06304 4.11048 6.12701 4.02044 6.65151ZM15.3005 4.01435C15.6556 4.01321 16.0238 4.0676 16.3614 3.99148C16.5881 3.94038 16.8384 3.74256 16.9574 3.54142C17.1067 3.28916 16.9146 3.0349 16.6826 2.90339C16.5312 2.81757 16.3197 2.80899 16.135 2.80874C12.3918 2.80377 8.64858 2.805 4.90536 2.80516C4.80975 2.80517 4.71412 2.80611 4.61854 2.80842C4.25276 2.81727 4.07703 3.04976 4.02857 3.3605C3.97783 3.68595 4.16712 3.89562 4.48668 3.96658C4.65728 4.00447 4.83765 4.01236 5.01362 4.01249C8.4153 4.01499 11.817 4.01433 15.3005 4.01435ZM6.19433 9.34956C5.82537 9.34956 5.4564 9.34953 5.08744 9.34957C4.97812 9.34958 4.86876 9.34811 4.75948 9.35017C4.30136 9.3588 4.00984 9.60528 4.02037 9.97377C4.03032 10.3217 4.31434 10.5566 4.75789 10.5576C6.61635 10.5615 8.47483 10.5603 10.3333 10.5587C10.8431 10.5582 11.0698 10.3755 11.0763 9.97229C11.0834 9.52505 10.8811 9.35132 10.3349 9.35038C8.98208 9.34806 7.62922 9.34958 6.19433 9.34956Z" fill="#EEDFBB"/>
<path d="M39.1547 39.9559C37.2525 39.9782 35.3686 39.9812 33.4463 39.9619C33.4079 39.9396 33.3987 39.9081 33.4029 39.8704C33.4033 38.272 33.3995 36.7111 33.3968 35.1282C33.3936 35.092 33.3893 35.0779 33.3883 35.0268C33.3915 34.6265 33.3915 34.2632 33.3915 33.9696C32.9604 34.3302 32.522 34.6969 32.0468 35.0671C31.7913 35.0799 31.5726 35.0892 31.3151 35.0919C29.6014 35.0861 27.9262 35.0867 26.2156 35.0823C26.0098 35.077 25.8397 35.0768 25.6415 35.0758C25.5572 35.073 25.5011 35.071 25.4281 35.0481C25.3126 34.9874 25.2139 34.9477 25.1035 34.8827C25.0055 34.7395 24.9233 34.6186 24.8323 34.5045C24.2671 33.7959 24.2134 33.1204 24.679 32.3695C24.7763 32.2126 24.9107 32.078 25.0544 31.9209C25.6794 31.4497 26.4175 31.671 27.078 31.5135C28.0861 31.5166 29.0946 31.5381 30.1016 31.508C30.314 31.5016 30.5867 31.3567 30.7191 31.1896C31.7388 29.9025 32.7277 28.5919 33.7328 27.2936C34.1072 26.81 34.5763 26.458 35.2697 26.3647C35.829 26.6106 36.3276 26.8555 36.8517 27.1197C37.6192 27.3649 38.3383 27.2326 39.0513 27.0041C39.6804 27.3422 39.9359 27.9356 39.9413 28.5677C39.9709 32.0423 39.958 35.5172 39.9529 38.9921C39.9522 39.4994 39.5559 39.7193 39.1547 39.9559Z" fill="#D1B7A0"/>
<path d="M20.7668 4.91406C24.6214 4.91582 28.4761 4.91758 32.369 4.95951C32.4343 5.18407 32.4865 5.36872 32.4846 5.55283C32.4641 7.53493 32.4364 9.51697 32.4081 11.499C32.3901 12.756 31.2028 13.7135 29.9727 13.7103C25.5907 13.6992 21.2086 13.705 16.8265 13.7097C16.6587 13.7099 16.491 13.7654 16.3233 13.7951C16.297 13.6818 16.2707 13.5686 16.2661 13.399C16.6944 13.3294 17.1009 13.3059 17.5075 13.3047C19.2384 13.2997 20.6744 11.891 20.6749 10.1897C20.6754 8.58222 20.6726 6.97473 20.679 5.36727C20.6797 5.21609 20.7362 5.06513 20.7668 4.91406Z" fill="#EEDFBB"/>
<path d="M25.0281 31.9334C24.9108 32.0783 24.7764 32.2129 24.6791 32.3698C24.2135 33.1208 24.2672 33.7962 24.8323 34.5049C24.9233 34.619 25.0055 34.7399 25.0923 34.9041C25.0702 34.9918 25.0476 35.033 24.9865 35.077C22.0747 35.0761 19.2013 35.0726 16.3314 35.0545C16.3348 35.0399 16.3379 35.0102 16.3379 35.0102C17.0315 34.7921 17.5417 34.226 17.5617 33.6524C17.5996 32.564 17.2865 31.9716 16.4602 31.6857C16.2012 31.596 15.899 31.6242 15.6161 31.6049C15.3993 31.5901 15.1818 31.5854 14.9423 31.5489C14.9241 30.596 14.9939 29.6648 14.9137 28.7463C14.8362 27.8598 15.2212 27.2294 15.8873 26.7861C16.5338 26.3559 17.2785 26.0681 18.0394 25.7207C18.1645 25.7883 18.2341 25.8497 18.2956 25.9181C18.7891 26.4676 19.3376 26.9352 20.1174 27.1186C20.6108 27.1574 21.0822 27.2071 21.55 27.1851C22.2625 27.1517 22.8186 26.7436 23.4014 26.3706C23.5604 26.4759 23.6959 26.5657 23.8278 26.6601C24.5931 27.2076 25.0928 27.8679 25.0365 28.8772C24.9799 29.8931 25.0266 30.9144 25.0281 31.9334Z" fill="#D1B7A0"/>
<path d="M20.7625 4.87642C20.7359 5.06481 20.6794 5.21577 20.6788 5.36695C20.6723 6.97441 20.6751 8.5819 20.6747 10.1894C20.6742 11.8907 19.2381 13.2994 17.5072 13.3044C17.1007 13.3056 16.6941 13.3291 16.2637 13.3672C13.0955 13.3892 9.95116 13.3838 6.80682 13.3921C6.67004 13.3924 6.50555 13.4903 6.40148 13.5905C5.62024 14.3423 4.85345 15.1085 4.0744 15.8625C3.9879 15.9463 3.78052 16.0532 3.75307 16.0264C3.65004 15.9261 3.5407 15.7764 3.53706 15.6425C3.517 14.9052 3.52748 14.1671 3.52748 13.3894C2.09771 13.2552 1.04837 12.5925 0.499023 11.2356C5.55996 11.2329 10.6147 11.2983 15.6688 11.2647C17.2778 11.254 18.5518 9.97372 18.6024 8.39363C18.682 5.91095 18.6276 3.42398 18.6168 0.938876C18.6157 0.704314 18.5206 0.47015 18.4641 0.205078C19.6194 0.379909 20.636 1.72481 20.675 2.73155C20.7022 3.43409 20.7306 4.13659 20.7625 4.87642Z" fill="#C68E7A"/>
<path d="M16.3247 13.8273C16.4909 13.7652 16.6587 13.7098 16.8264 13.7096C21.2085 13.7048 25.5906 13.699 29.9726 13.7102C31.2027 13.7133 32.39 12.7558 32.408 11.4988C32.4363 9.51682 32.464 7.53478 32.4845 5.55268C32.4864 5.36857 32.4342 5.18392 32.4069 4.96533C33.0008 5.02717 33.5138 5.27974 33.9183 5.72004C34.3027 6.13832 34.535 6.63248 34.5374 7.20047C34.5457 9.24174 34.5212 11.2833 34.5476 13.3243C34.5637 14.5625 33.4611 15.7675 32.1289 15.7327C32.1289 16.606 32.1289 17.4786 32.1289 18.3511C32.0854 18.3853 32.0418 18.4196 31.9983 18.4538C31.7809 18.3396 31.5243 18.2657 31.3528 18.1044C30.6029 17.3988 29.8857 16.6597 29.1362 15.9538C29.0004 15.8259 28.769 15.7317 28.5813 15.7309C25.2057 15.7178 21.8299 15.7077 18.4544 15.7308C17.5766 15.7368 16.3735 14.7522 16.3247 13.8273Z" fill="#C68E7A"/>
<path d="M20.0932 27.0978C19.337 26.9354 18.7885 26.4678 18.295 25.9184C18.2335 25.8499 18.1639 25.7885 18.0706 25.7177C17.4221 24.7026 17.5633 23.5826 17.5576 22.4842C17.5558 22.1358 17.5581 21.7873 17.6023 21.4017C19.2292 21.366 20.8124 21.3674 22.3964 21.4061C22.3973 22.2225 22.4145 23.0019 22.3933 23.7803C22.368 24.7073 22.1033 25.5603 21.3713 26.191C20.978 26.5299 20.5213 26.7978 20.0932 27.0978Z" fill="#FFCFAB"/>
<path d="M0.898438 19.9023C0.989716 19.0115 1.7553 18.4478 2.55752 18.3865C3.07078 18.3472 3.58999 18.3832 4.16439 18.4101C5.27245 18.7956 5.73464 19.5292 5.66324 20.6105C5.64485 20.889 5.65854 21.1696 5.62774 21.444C5.45038 21.383 5.30277 21.3272 5.09774 21.2497C5.03304 21.5672 4.98111 21.8379 4.92243 22.1072C4.68913 23.178 4.07675 23.9871 2.95279 24.2054C2.23228 24.3453 1.58108 24.1525 0.906277 23.9742C0.902629 22.5927 0.900533 21.2475 0.898438 19.9023Z" fill="black"/>
<path d="M36.8254 27.101C36.3268 26.8561 35.8282 26.6112 35.3008 26.3612C34.8654 25.8552 34.4769 25.3368 34.3616 24.6916C34.2764 24.2149 34.2393 23.7274 34.2173 23.2431C34.1938 22.7234 34.213 22.2018 34.2513 21.6463C35.2061 21.9804 36.0342 21.6309 36.8407 21.2588C37.0099 21.8136 37.1284 22.3352 37.3278 22.8249C37.6357 23.5811 38.2023 24.0682 39.0489 24.2138C39.0516 24.2294 39.0571 24.2605 39.055 24.2929C38.9035 25.1561 38.5446 25.8815 37.8752 26.421C37.5529 26.6808 37.177 26.8763 36.8254 27.101Z" fill="#FFCFAB"/>
<path d="M39.0463 24.1983C38.2024 24.0682 37.6358 23.5811 37.3279 22.8249C37.1285 22.3352 37.01 21.8136 36.8407 21.2588C36.0342 21.6309 35.2062 21.9804 34.2571 21.6089C34.2178 20.864 34.113 20.1082 34.463 19.4075C34.7809 18.7712 35.2895 18.4393 36.0391 18.4557C36.6073 18.4682 37.177 18.4156 37.7882 18.4219C37.9726 18.5518 38.1107 18.658 38.2578 18.7506C38.7853 19.0826 39.0401 19.5754 39.0475 20.1689C39.0642 21.5118 39.0487 22.8551 39.0463 24.1983Z" fill="black"/>
<path d="M22.396 21.3686C20.8129 21.3672 19.2297 21.3659 17.6089 21.3641C17.5941 20.8085 17.5686 20.2462 17.6516 19.6998C17.757 19.0053 18.5772 18.3847 19.2914 18.3829C20.2195 18.3806 21.1477 18.3838 22.1292 18.4149C22.254 18.6537 22.3802 18.8605 22.3872 19.0711C22.4125 19.8341 22.3978 20.5984 22.3978 21.3638C22.3975 21.3655 22.396 21.3686 22.396 21.3686Z" fill="black"/>
<path d="M0.908304 24.0109C1.58156 24.1527 2.23276 24.3456 2.95327 24.2057C4.07723 23.9874 4.68961 23.1782 4.92291 22.1075C4.98158 21.8382 5.03351 21.5675 5.09821 21.25C5.30324 21.3275 5.45086 21.3832 5.63283 21.4583C5.66719 21.4775 5.67263 21.5065 5.66933 21.5454C5.66444 22.3365 5.70487 23.0919 5.64668 23.8398C5.60697 24.3503 5.49077 24.874 5.30033 25.3499C4.95098 26.2229 4.19179 26.7075 3.36275 27.0931C2.91653 26.8775 2.47031 26.662 1.99525 26.4414C1.32291 25.7794 0.908494 25.0143 0.846191 24.0577C0.870624 24.0208 0.908304 24.0109 0.908304 24.0109Z" fill="#FFCFAB"/>
<path d="M20.1172 27.1191C20.5217 26.7981 20.9784 26.5301 21.3717 26.1912C22.1038 25.5605 22.3684 24.7075 22.3937 23.7806C22.415 23.0021 22.3978 22.2227 22.3968 21.4064C22.396 21.369 22.3975 21.3659 22.4363 21.3653C23.1289 21.3647 23.7827 21.3647 24.4365 21.3648C24.4409 22.3374 24.4972 23.3136 24.4275 24.2811C24.3939 24.7464 24.1225 25.1952 23.9359 25.6936C23.734 25.9431 23.555 26.1505 23.376 26.3579C22.8184 26.7441 22.2623 27.1522 21.5498 27.1856C21.082 27.2076 20.6106 27.1579 20.1172 27.1191Z" fill="#FA967A"/>
<path d="M39.0488 24.2134C39.0486 22.8547 39.0641 21.5114 39.0473 20.1685C39.0399 19.575 38.7852 19.0822 38.2576 18.7501C38.1106 18.6576 37.9724 18.5514 37.8237 18.4254C38.3865 18.3921 38.9591 18.3436 39.5239 18.3891C40.1093 18.4363 40.9375 18.9043 41.1039 19.9112C41.1007 21.3236 41.0984 22.6666 41.0653 24.0184C40.3753 24.1047 39.7162 24.1824 39.057 24.26C39.057 24.26 39.0515 24.229 39.0488 24.2134Z" fill="black"/>
<path d="M23.4004 26.3706C23.5542 26.1499 23.7332 25.9425 23.9372 25.7227C25.0693 26.0269 26.0544 26.5566 26.7918 27.4363C26.9818 27.6629 27.052 28.0387 27.0619 28.3495C27.0944 29.3788 27.0743 30.4097 27.0757 31.4769C26.4166 31.6712 25.6784 31.45 25.0534 31.9212C25.0256 30.9144 24.9789 29.893 25.0355 28.8772C25.0918 27.8679 24.5921 27.2075 23.8269 26.66C23.6949 26.5656 23.5595 26.4758 23.4004 26.3706Z" fill="#A18168"/>
<path d="M3.38525 27.1147C4.19155 26.7077 4.95075 26.2231 5.30009 25.3501C5.49054 24.8742 5.60673 24.3505 5.64644 23.84C5.70464 23.0921 5.6642 22.3367 5.69916 21.5533C6.4144 21.8112 7.09743 21.8782 7.78258 21.5322C7.75917 22.5194 7.79057 23.5119 7.69374 24.4921C7.62519 25.1861 7.24797 25.7939 6.73959 26.3313C6.51578 26.4918 6.30204 26.6319 6.08052 26.759C5.24245 27.2398 4.35511 27.3956 3.38525 27.1147Z" fill="#FA967A"/>
<path d="M7.78718 21.4943C7.0974 21.878 6.41437 21.811 5.70243 21.5142C5.67237 21.5065 5.66692 21.4776 5.66231 21.4635C5.65875 21.1699 5.64506 20.8893 5.66345 20.6108C5.73485 19.5295 5.27266 18.7959 4.20264 18.4156C4.93721 18.4174 5.69505 18.4031 6.44473 18.473C6.91804 18.5172 7.63412 19.2066 7.70654 19.9112C7.75924 20.4239 7.76507 20.9413 7.78718 21.4943Z" fill="black"/>
<path d="M39.0557 24.2927C39.717 24.1826 40.3761 24.1049 41.0857 24.0233C41.1361 24.0193 41.1759 24.0258 41.1759 24.0258C41.1212 24.9569 40.7574 25.7468 40.0517 26.4093C39.7245 26.6105 39.4054 26.7864 39.0687 26.9834C38.3382 27.233 37.6191 27.3653 36.8516 27.12C37.1777 26.8761 37.5536 26.6805 37.8759 26.4208C38.5453 25.8813 38.9042 25.1558 39.0557 24.2927Z" fill="#FA967A"/>
<path d="M24.4421 21.3268C23.782 21.364 23.1283 21.364 22.436 21.3629C22.3972 20.5981 22.4119 19.8338 22.3866 19.0708C22.3796 18.8602 22.2534 18.6534 22.1665 18.4205C22.7497 18.3912 23.3484 18.3889 23.9469 18.38C24.298 18.3748 24.4538 18.5406 24.4515 18.8816C24.4461 19.6842 24.4488 20.4869 24.4421 21.3268Z" fill="black"/>
<path d="M41.1803 23.9886C41.1755 24.026 41.1357 24.0195 41.1161 24.0148C41.0988 22.667 41.1011 21.324 41.1043 19.9424C41.132 20.0264 41.1812 20.1489 41.1818 20.2715C41.1875 21.4981 41.1851 22.7246 41.1803 23.9886Z" fill="#64798C"/>
<path d="M0.906615 23.9744C0.908167 24.0108 0.870487 24.0207 0.851344 24.0243C0.833893 22.6654 0.835585 21.3029 0.868026 19.9214C0.900872 21.2476 0.902967 22.5928 0.906615 23.9744Z" fill="#D8A595"/>
<path d="M16.3278 35.069C19.2011 35.0726 22.0745 35.0761 25.0058 35.098C25.1908 35.1006 25.3178 35.085 25.4447 35.0693C25.5009 35.0713 25.5571 35.0733 25.6656 35.0959C25.8956 35.1069 26.0733 35.0973 26.251 35.0878C27.9261 35.0871 29.6012 35.0864 31.3121 35.1275C31.3455 36.7718 31.3431 38.3744 31.3407 39.9769C31.259 39.9807 31.1773 39.9878 31.0955 39.9878C23.6266 39.9878 16.1576 39.9872 8.65005 39.9452C8.61455 38.2901 8.61768 36.6765 8.65847 35.0662C9.10447 35.0679 9.51281 35.0664 9.92116 35.0649C11.8391 35.068 13.7571 35.0711 15.7234 35.0912C15.7889 35.1285 15.8102 35.1429 15.8673 35.1506C16.0144 35.1231 16.1297 35.0962 16.245 35.0693C16.245 35.0693 16.2449 35.0706 16.2654 35.0716C16.2998 35.0714 16.3138 35.0702 16.3278 35.069Z" fill="#68251E"/>
<path d="M8.62082 35.063C8.61769 36.6765 8.61455 38.29 8.61166 39.9406C8.57529 39.9813 8.53867 39.9849 8.44895 39.9617C7.78538 39.9257 7.17492 39.9165 6.56445 39.9074C6.56445 37.0475 6.56445 34.1876 6.56445 31.3277C6.60937 31.3099 6.65429 31.2922 6.69921 31.2744C7.37397 32.0911 8.05084 32.9062 8.61333 33.8781C8.61827 34.3171 8.61955 34.69 8.62082 35.063Z" fill="#A18168"/>
<path d="M16.2113 35.0688C16.1299 35.0962 16.0145 35.1231 15.8675 35.1319C15.8359 35.1137 15.8384 35.0763 15.8384 35.0763C15.9514 35.0737 16.0644 35.071 16.2113 35.0688Z" fill="#D8A5A9"/>
<path d="M15.8161 35.0749C15.8377 35.0765 15.8351 35.1139 15.835 35.1326C15.8096 35.143 15.7883 35.1287 15.7612 35.0921C15.7657 35.0749 15.7801 35.0741 15.8161 35.0749Z" fill="#E0837E"/>
<path d="M16.3307 35.0547C16.3133 35.0704 16.2993 35.0715 16.2643 35.0713C16.2515 35.0422 16.2692 35.0229 16.3168 35.0112C16.3372 35.0104 16.3341 35.0401 16.3307 35.0547Z" fill="#D8A5A9"/>
<path d="M31.3682 39.9821C31.3429 38.374 31.3453 36.7715 31.3506 35.1337C31.5722 35.0892 31.7909 35.0799 32.0671 35.0703C32.1379 35.0741 32.1513 35.0783 32.1906 35.1031C32.6096 35.1327 33.0025 35.1415 33.3953 35.1503C33.3992 36.7111 33.403 38.2719 33.3635 39.8702C32.7161 39.9304 32.112 39.9532 31.5079 39.9761C31.4706 39.9799 31.4332 39.9838 31.3682 39.9821Z" fill="#3E1213"/>
<path d="M4.021 6.61961C4.11067 6.12714 4.456 6.06316 4.85029 6.06348C6.99703 6.06519 9.14376 6.06428 11.2905 6.06428C12.904 6.06428 14.5175 6.06053 16.1309 6.0695C16.313 6.07051 16.5476 6.08836 16.6636 6.19626C16.8183 6.34024 16.9967 6.61042 16.9531 6.77084C16.9002 6.96556 16.6336 7.11114 16.4438 7.25848C16.3925 7.29832 16.2844 7.26912 16.2024 7.26912C12.4012 7.26935 8.59999 7.2699 4.79876 7.26859C4.27815 7.26842 4.12772 7.14465 4.021 6.61961Z" fill="#68251E"/>
<path d="M15.2592 4.01412C11.8166 4.01411 8.41493 4.01477 5.01325 4.01226C4.83727 4.01213 4.6569 4.00424 4.48631 3.96636C4.16675 3.8954 3.97745 3.68572 4.0282 3.36028C4.07665 3.04954 4.25238 2.81704 4.61816 2.8082C4.71374 2.80589 4.80938 2.80494 4.90499 2.80494C8.6482 2.80478 12.3914 2.80355 16.1346 2.80852C16.3193 2.80876 16.5308 2.81734 16.6823 2.90317C16.9143 3.03467 17.1063 3.28893 16.957 3.54119C16.838 3.74233 16.5877 3.94016 16.3611 3.99125C16.0234 4.06738 15.6553 4.01298 15.2592 4.01412Z" fill="#68251E"/>
<path d="M6.23527 9.34961C7.62915 9.34963 8.982 9.34811 10.3349 9.35043C10.8811 9.35137 11.0833 9.5251 11.0762 9.97234C11.0697 10.3755 10.843 10.5583 10.3332 10.5587C8.47475 10.5603 6.61628 10.5615 4.75782 10.5576C4.31426 10.5567 4.03024 10.3218 4.0203 9.97382C4.00976 9.60533 4.30128 9.35885 4.7594 9.35022C4.86869 9.34816 4.97804 9.34963 5.08736 9.34962C5.45633 9.34958 5.82529 9.34961 6.23527 9.34961Z" fill="#68251E"/>
<path d="M25.4271 35.0486C25.317 35.0852 25.19 35.1008 25.0435 35.0955C25.0466 35.0332 25.0692 34.992 25.103 34.9297C25.2129 34.9483 25.3116 34.988 25.4271 35.0486Z" fill="#D8A5A9"/>
<path d="M26.2156 35.0827C26.0735 35.0973 25.8958 35.1069 25.6938 35.0967C25.8397 35.0772 26.0099 35.0774 26.2156 35.0827Z" fill="#D8A5A9"/>
</svg>
