<svg width="57" height="60" viewBox="0 0 57 60" fill="none" xmlns="http://www.w3.org/2000/svg">
<path d="M19.977 59.9999C19.0848 59.6159 18.1728 59.3394 17.4248 58.8246C16.0347 57.868 15.2009 56.516 14.9281 54.801C14.6736 53.2006 14.9928 51.7615 15.8673 50.435C17.26 48.3224 19.2799 47.4111 21.7534 47.6292C24.4843 47.8699 26.831 50.1711 27.2535 52.9573C27.7095 55.9647 25.5719 59.0861 22.8801 59.7838C22.6803 59.8355 22.4765 59.8718 22.2564 59.9576C21.5026 59.9999 20.7669 59.9999 19.977 59.9999Z" fill="black"/>
<path d="M44.6369 59.9999C43.9024 59.7205 43.1651 59.5315 42.5529 59.1445C40.78 58.0236 39.7201 56.4411 39.5936 54.2776C39.5082 52.8174 39.8234 51.4961 40.643 50.2873C42.3655 47.7468 45.7393 46.8967 48.4193 48.1919C50.9959 49.4371 52.238 51.9174 51.9699 54.5568C51.8439 55.7971 51.3535 56.9288 50.4757 57.8988C49.5285 58.9455 48.4209 59.6345 47.0311 59.9582C46.2396 59.9999 45.4654 59.9999 44.6369 59.9999Z" fill="black"/>
<path d="M15.4238 13.006C14.6023 12.1699 13.7816 11.3329 12.9588 10.498C12.2057 9.73377 12.2094 9.00454 12.9795 8.23387C15.28 5.93141 17.5807 3.62912 19.8859 1.33129C20.0723 1.14544 20.3621 0.839932 20.5779 0.634156C21.0232 0.258021 21.0003 0.0264802 21.562 0.634156C21.4284 0.489576 22.2613 1.28254 22.5169 1.53585C24.8969 3.89474 27.2713 6.25933 29.6573 8.66163C29.8093 8.87778 29.9368 9.0689 30.0956 9.22906C31.3773 10.522 32.6648 11.8091 33.8973 13.1075C27.9295 13.1197 22.0149 13.1238 16.1003 13.1202C15.8748 13.1201 15.6493 13.0458 15.4238 13.006Z" fill="#A15E2A"/>
<path d="M33.9324 13.0717C32.6467 11.7828 31.3591 10.4957 30.0775 9.20276C29.9187 9.0426 29.7911 8.85148 29.6471 8.58145C29.6461 6.45514 29.6604 4.42195 29.6408 2.38909C29.6339 1.67671 29.8415 1.10998 30.4585 0.723633C34.0499 0.723633 37.6413 0.723633 41.3007 0.761694C41.7203 1.00076 42.039 1.21437 42.0535 1.68905C42.0756 2.40752 42.1243 3.12517 42.1527 3.89133C42.1096 4.16555 42.0465 4.39154 42.046 4.61767C42.0399 7.43089 42.043 10.2441 41.9901 13.07C39.2685 13.079 36.6005 13.0754 33.9324 13.0717Z" fill="#BA7D5F"/>
<path d="M42.0444 13.0574C42.0437 10.2441 42.0406 7.4309 42.0467 4.61767C42.0472 4.39154 42.1103 4.16555 42.19 3.88132C42.4526 3.60661 42.6804 3.39983 42.8845 3.17185C43.8896 2.04915 45.0962 1.25286 46.568 0.887447C46.8665 0.813339 47.1744 0.777249 47.478 0.723633C47.8289 0.723633 48.1797 0.723633 48.5832 0.723634C49.3089 0.908413 50.0038 1.03714 50.6512 1.28843C52.6303 2.05672 53.841 3.55684 54.2888 5.58457C54.8035 7.91451 54.2514 10.0102 52.5119 11.7256C52.115 12.117 51.7227 12.513 51.2663 12.9539C51.0935 13.0293 50.9826 13.0827 50.8718 13.0825C47.9293 13.0775 44.9868 13.067 42.0444 13.0574Z" fill="#68251E"/>
<path d="M41.9896 13.07C44.9857 13.0669 47.9282 13.0774 50.8706 13.0824C50.9814 13.0826 51.0923 13.0292 51.2503 12.9887C52.667 12.9829 54.0366 12.982 55.406 12.9981C56.4062 13.0099 57.1025 13.7278 56.9664 14.5788C56.9246 14.8401 56.8907 15.1026 56.8543 15.3647C56.6642 16.7337 56.463 18.1012 56.2881 19.4722C56.1512 20.5458 56.0605 21.6253 55.9249 22.6992C55.7494 24.0893 55.5446 25.4758 55.3622 26.8651C55.2337 27.8431 55.119 28.823 55.0029 29.8026C54.8546 31.0536 54.387 32.1559 53.574 33.1311C52.2026 34.7763 50.4168 35.3497 48.34 35.347C37.5157 35.333 26.6913 35.3416 15.7786 35.319C15.6337 35.0525 15.5708 34.8107 15.5218 34.5661C14.342 28.679 13.1607 22.7923 11.9877 16.9039C11.7287 15.604 11.5003 14.2981 11.2578 12.9949C12.6043 12.9943 13.9507 12.9938 15.3512 12.9864C15.6307 13.0194 15.8561 13.0937 16.0816 13.0938C21.9962 13.0974 27.9108 13.0934 33.8787 13.0811C36.6 13.0753 39.268 13.0789 41.9896 13.07Z" fill="#E3B192"/>
<path d="M11.2505 12.9463C11.5009 14.2977 11.7293 15.6037 11.9883 16.9036C13.1613 22.792 14.3427 28.6787 15.5224 34.5657C15.5714 34.8104 15.6344 35.0522 15.7255 35.3242C16.0747 36.6044 16.2446 37.9163 16.737 39.0932C17.5229 40.9717 19.0637 42.0749 21.0562 42.5121C21.4051 42.5886 21.7695 42.6285 22.1267 42.6287C31.5613 42.6349 40.9959 42.6332 50.4305 42.6342C51.4452 42.6343 52.0211 43.1512 51.9927 44.0248C51.9701 44.7153 51.495 45.1801 50.8014 45.1801C40.981 45.181 31.1603 45.2093 21.3402 45.1546C19.5502 45.1446 17.9525 44.3454 16.5785 43.1688C14.6989 41.5593 13.8337 39.453 13.4207 37.0614C12.9695 34.4495 12.3693 31.8635 11.8476 29.2635C11.4033 27.0494 10.9858 24.8301 10.5428 22.6158C10.0594 20.1999 9.5516 17.7888 9.0705 15.3724C8.66258 13.3235 8.27776 11.2701 7.88198 9.21878C7.84636 9.03417 7.7768 8.85123 7.77268 8.66641C7.76354 8.25578 7.58709 8.11948 7.16992 8.12391C5.26006 8.14419 3.34878 8.09519 1.4403 8.15033C0.613754 8.17421 0.068276 7.6478 0.0179309 6.86922C-0.0245907 6.21164 0.685542 5.59073 1.45759 5.58816C3.57987 5.5811 5.70219 5.58572 7.82449 5.58571C8.03672 5.58571 8.24921 5.57892 8.46114 5.58686C9.51299 5.62625 9.85649 5.96253 10.042 6.80659C10.486 8.82741 10.8477 10.8663 11.2505 12.9463Z" fill="black"/>
</svg>
