<svg width="53" height="52" viewBox="0 0 53 52" fill="none" xmlns="http://www.w3.org/2000/svg">
<path d="M10.6655 24.4594C7.14209 24.4649 3.61866 24.4705 0.047617 24.4761C3.02801e-09 17.3956 0 10.3151 0 3.18702C3.01588 3.13993 6.03177 3.14047 9.09536 3.19498C9.14347 3.55352 9.14421 3.85808 9.14423 4.16265C9.14434 6.70069 9.15249 9.23878 9.13593 11.7767C9.13331 12.1789 9.25244 12.3229 9.65337 12.2903C9.9889 12.263 10.3292 12.2942 10.6676 12.3461C10.6671 16.415 10.6663 20.4372 10.6655 24.4594Z" fill="#F4D5C0"/>
<path d="M42.8791 27.5411C45.8946 27.5355 48.91 27.53 51.9731 27.5244C52.0207 34.6049 52.0207 41.6854 52.0207 48.8134C48.4952 48.8604 44.9697 48.8597 41.3977 48.8052C41.3512 44.729 41.3513 40.7068 41.3507 36.6759C41.35 36.6674 41.3509 36.6502 41.3983 36.6563C41.716 36.6645 41.9895 36.6419 42.2563 36.6741C42.7388 36.7322 42.8916 36.5606 42.8877 36.0618C42.8653 33.2217 42.8782 30.3813 42.8791 27.5411Z" fill="#E3B192"/>
<path d="M0 39.5515C0.195372 39.3304 0.420752 39.1704 0.581405 38.9608C1.96342 37.1577 3.3357 35.3471 4.70689 33.5357C5.61704 32.3333 6.52122 31.1265 7.42612 29.9202C7.50603 29.8136 7.57146 29.6963 7.68843 29.5142C10.3008 32.9967 12.8252 36.3619 15.4054 39.8015C13.8562 39.8015 12.3959 39.8015 10.9062 39.8015C10.7616 40.8826 11.0907 41.8114 11.5698 42.6902C12.1408 43.7376 12.9536 44.5949 14.0194 45.1162C14.7168 45.4573 15.5085 45.7378 16.2732 45.7821C17.9681 45.8804 19.6726 45.8127 21.4383 45.8127C21.4383 47.9343 21.4383 49.9248 21.4383 51.9629C19.2009 52.0106 16.9635 52.0106 14.7041 51.9735C14.58 51.8935 14.4799 51.845 14.3757 51.8083C13.2899 51.4263 12.1534 51.1475 11.129 50.6415C9.63922 49.9056 8.38384 48.8289 7.33557 47.5171C6.09413 45.9635 5.24611 44.2307 4.88513 42.2766C4.73778 41.4789 4.68624 40.6636 4.58662 39.8182C3.07568 39.8182 1.53784 39.8182 5.08705e-07 39.8182C5.08705e-07 39.742 5.08015e-07 39.6658 0 39.5515Z" fill="#C68E7A"/>
<path d="M52.0208 12.4487C51.9459 12.5117 51.8403 12.5131 51.8007 12.5649C50.5835 14.1607 49.375 15.7631 48.1605 17.3609C46.8963 19.024 45.6273 20.6834 44.2936 22.4322C41.7317 19.0183 39.2017 15.6468 36.6168 12.2022C38.162 12.2022 39.6222 12.2022 41.1049 12.2022C41.2411 11.4088 41.052 10.7085 40.7776 10.0322C39.9331 7.9513 38.3686 6.7081 36.2035 6.21571C35.7193 6.10559 35.2059 6.09721 34.7053 6.09128C33.3532 6.07526 32.0008 6.08579 30.5825 6.08579C30.5825 4.06645 30.5825 2.07565 30.5825 0.0372253C32.8199 -0.0103917 35.0573 -0.0103917 37.3153 0.0262089C37.4207 0.105835 37.5012 0.171647 37.591 0.188552C39.8068 0.605939 41.7335 1.61329 43.3954 3.11145C44.7173 4.30313 45.7738 5.7192 46.4093 7.38696C46.7815 8.36377 47.006 9.4021 47.2329 10.4269C47.3572 10.9879 47.3482 11.5783 47.4017 12.182C48.9498 12.182 50.4853 12.182 52.0208 12.182C52.0208 12.2582 52.0208 12.3344 52.0208 12.4487Z" fill="#C68E7A"/>
<path d="M10.7131 24.4669C10.6666 20.4374 10.6674 16.4152 10.6672 12.3378C10.6662 12.2826 10.6672 12.2654 10.7145 12.2715C11.0322 12.2797 11.3057 12.2571 11.5725 12.2893C12.055 12.3474 12.2078 12.1757 12.2039 11.677C12.1816 8.83691 12.1944 5.99653 12.1953 3.15625C15.2225 3.15625 18.2497 3.15625 21.3069 3.15625C21.3069 10.2525 21.3069 17.3357 21.3069 24.4742C17.79 24.4742 14.2752 24.4742 10.7131 24.4669Z" fill="#E3B192"/>
<path d="M41.3513 36.6839C41.3512 40.7062 41.3511 44.7284 41.3503 48.7972C37.8139 48.8438 34.2783 48.8438 30.7134 48.8438C30.7134 41.75 30.7134 34.6658 30.7134 27.5254C33.7179 27.5254 36.7247 27.5254 39.7793 27.5794C39.8274 27.9379 39.8282 28.2425 39.8282 28.547C39.8283 31.0851 39.8364 33.6232 39.8199 36.1611C39.8173 36.5633 39.9364 36.7073 40.3373 36.6747C40.6729 36.6474 41.0131 36.6786 41.3513 36.6839Z" fill="#F4D5C0"/>
<path d="M10.6665 12.2908C10.329 12.2941 9.98875 12.2629 9.65322 12.2902C9.25229 12.3228 9.13316 12.1788 9.13578 11.7766C9.15234 9.23866 9.14419 6.70056 9.14408 4.16252C9.14406 3.85796 9.14332 3.5534 9.14214 3.20229C9.61864 3.15106 10.0959 3.14638 10.6204 3.19544C10.6673 6.25448 10.667 9.25977 10.6668 12.265C10.6668 12.265 10.6658 12.2822 10.6665 12.2908Z" fill="#E4A046"/>
<path d="M10.7153 12.2711C10.6683 9.25974 10.6686 6.25446 10.6685 3.20265C11.1461 3.15137 11.6241 3.14662 12.1491 3.14888C12.1953 5.99617 12.1824 8.83655 12.2047 11.6766C12.2087 12.1754 12.0559 12.347 11.5734 12.2889C11.3065 12.2568 11.0331 12.2793 10.7153 12.2711Z" fill="#D79148"/>
<path d="M41.3506 36.6756C41.0131 36.6788 40.6728 36.6477 40.3373 36.675C39.9364 36.7075 39.8172 36.5635 39.8199 36.1614C39.8364 33.6234 39.8283 31.0853 39.8282 28.5473C39.8281 28.2427 39.8274 27.9382 39.8262 27.5871C40.3027 27.5358 40.78 27.5311 41.3045 27.5802C41.3514 30.6393 41.3511 33.6445 41.3508 36.6498C41.3508 36.6498 41.3499 36.667 41.3506 36.6756Z" fill="#E4A046"/>
<path d="M41.3979 36.6559C41.3509 33.6445 41.3512 30.6392 41.3511 27.5874C41.8287 27.5361 42.3067 27.5314 42.8317 27.5336C42.8779 30.3809 42.865 33.2213 42.8874 36.0614C42.8913 36.5602 42.7385 36.7318 42.256 36.6737C41.9891 36.6415 41.7157 36.6641 41.3979 36.6559Z" fill="#D79148"/>
</svg>
