<svg width="39" height="48" viewBox="0 0 39 48" fill="none" xmlns="http://www.w3.org/2000/svg">
<path d="M24.9381 0C25.0357 0.101916 25.0712 0.223593 25.1496 0.302766C26.216 1.37926 27.2847 2.45337 28.3634 3.51745C28.4971 3.64933 28.6792 3.76407 28.8589 3.81231C30.3336 4.20823 31.813 4.58681 33.2912 4.9698C33.51 5.02647 33.694 5.09693 33.7619 5.3602C34.1396 6.82297 34.5215 8.28483 34.9264 9.74019C34.9998 10.0039 35.1406 10.2811 35.3293 10.4752C36.3855 11.5615 37.4625 12.6275 38.541 13.6918C38.7385 13.8867 38.799 14.0674 38.7198 14.3466C38.2911 15.858 37.8369 17.365 37.4975 18.8971C37.3981 19.3453 37.6144 19.8787 37.7408 20.3587C38.0561 21.5562 38.4168 22.7418 38.7219 23.9417C38.7667 24.1179 38.6662 24.4023 38.5332 24.5409C37.6788 25.4309 36.837 26.3405 35.9104 27.1515C35.1854 27.786 34.8529 28.5665 34.6338 29.4552C34.3408 30.643 34.0195 31.824 33.6873 33.0014C33.6549 33.1162 33.4735 33.2318 33.3399 33.2681C32.5814 33.4739 31.8165 33.6557 30.9794 33.8508C30.2167 34.0354 29.5227 34.1962 28.8431 34.4042C28.6039 34.4774 28.3666 34.6318 28.1856 34.8079C27.0441 35.9184 25.9187 37.0453 24.7494 38.1621C23.4801 37.8552 22.2472 37.5622 21.0198 37.2477C20.1967 37.0368 19.4011 36.8305 18.5439 37.1895C18.0089 37.4135 17.4041 37.471 16.803 37.5876C15.8442 36.6474 14.9238 35.7117 13.9742 34.8067C13.7506 34.5936 13.446 34.4226 13.1486 34.3375C11.7548 33.9385 10.3511 33.5737 8.94922 33.2033C8.67549 33.131 8.49863 33.019 8.41963 32.7061C8.05696 31.2701 7.6728 29.8392 7.27193 28.4133C7.19988 28.157 7.0565 27.8908 6.87208 27.7011C5.83765 26.6369 4.78795 25.5871 3.72541 24.551C3.49204 24.3234 3.43859 24.1165 3.52434 23.8121C3.85842 22.6265 4.17124 21.435 4.49622 20.2468C4.67238 19.6027 4.83052 18.9872 4.60904 18.2907C4.21259 17.0438 3.92883 15.7616 3.57122 14.5017C3.46202 14.117 3.55406 13.8598 3.83204 13.5886C4.86082 12.5849 5.87677 11.5678 6.87987 10.5385C7.05484 10.3589 7.19585 10.1109 7.26502 9.86946C7.67721 8.43049 8.0769 6.98754 8.44863 5.53769C8.53122 5.21558 8.67695 5.07601 8.98635 4.99679C10.4364 4.62556 11.8826 4.23879 13.3258 3.84181C13.5266 3.78658 13.7379 3.67932 13.8855 3.53567C14.7699 2.67481 15.6388 1.79803 16.5073 0.92108C16.6022 0.825231 16.6616 0.694222 16.7746 0.572505C17.5784 0.775356 18.343 0.993338 19.1131 1.19037C19.3586 1.25318 19.6374 1.33759 19.8683 1.28033C21.2537 0.936812 22.6299 0.556521 24.0068 0.179847C24.0623 0.164674 24.0938 0.0619383 24.1365 0C24.3896 1.875e-07 24.6428 1.875e-07 24.9381 0ZM25.1579 6.79937C22.8234 5.75468 20.3744 5.39413 17.8535 5.73821C14.3537 6.21589 11.4434 7.82343 9.20578 10.5734C6.74488 13.5976 5.74117 17.0792 6.25999 20.9306C6.71608 24.3165 8.24909 27.1759 10.9033 29.3816C13.9371 31.9028 17.4272 33.0072 21.3413 32.5041C24.7628 32.0643 27.6559 30.5372 29.8911 27.862C32.7959 24.3853 33.7634 20.4032 32.7557 16.0117C31.7751 11.7379 29.156 8.72345 25.1579 6.79937Z" fill="#E9D4C1"/>
<path d="M16.8031 37.5878C16.0759 37.8195 15.321 38.0355 14.5112 38.2267C13.4032 37.144 12.3356 36.0999 11.3046 35.0208C10.932 34.6309 10.5091 34.4016 10.0007 34.2788C9.45984 34.1482 8.92318 34.0003 8.38469 33.8599C7.49028 33.6358 6.59444 33.4169 5.70397 33.1781C5.62765 33.1576 5.56064 33.0113 5.53371 32.9115C5.1361 31.4375 4.75473 29.959 4.34567 28.4883C4.27619 28.2384 4.13845 27.9777 3.95904 27.7932C2.91381 26.7183 1.85106 25.6603 0.783613 24.6073C0.552715 24.3795 0.479738 24.1923 0.578711 23.8423C0.998362 22.358 1.40421 20.8665 1.71781 19.3575C1.81414 18.8939 1.63935 18.3566 1.52151 17.8693C1.23393 16.6801 0.930445 15.4934 0.579938 14.3216C0.489605 14.0196 0.554657 13.8694 0.744776 13.6814C1.61092 12.8246 2.42855 11.9131 3.34495 11.1147C4.09824 10.4584 4.43164 9.65343 4.64543 8.7236C4.91612 7.5463 5.25307 6.38379 5.58626 5.22203C5.61772 5.11232 5.81564 5.01478 5.95414 4.97689C7.25122 4.62209 8.54913 4.26933 9.85351 3.94272C10.3954 3.80704 10.8632 3.61572 11.2652 3.1857C12.2669 2.11438 13.3194 1.09057 14.3222 0.0239401C14.577 0.000188228 14.8611 0.000188223 15.1575 0.0301593C15.2463 0.102257 15.3183 0.159035 15.4 0.184074C15.8446 0.320271 16.2915 0.448644 16.7377 0.57971C16.6618 0.69441 16.6023 0.825419 16.5074 0.921268C15.6389 1.79822 14.77 2.675 13.8856 3.53585C13.7381 3.67951 13.5267 3.78676 13.3259 3.842C11.8827 4.23898 10.4365 4.62574 8.98648 4.99698C8.67707 5.07619 8.53134 5.21577 8.44876 5.53788C8.07702 6.98773 7.67734 8.43068 7.26514 9.86964C7.19598 10.1111 7.05496 10.3591 6.87999 10.5387C5.8769 11.568 4.86094 12.5851 3.83217 13.5888C3.55419 13.86 3.46215 14.1172 3.57135 14.5019C3.92896 15.7618 4.21272 17.044 4.60917 18.2909C4.83065 18.9874 4.67251 19.6029 4.49634 20.247C4.17136 21.4351 3.85855 22.6267 3.52447 23.8123C3.43871 24.1166 3.49217 24.3236 3.72554 24.5512C4.78808 25.5873 5.83778 26.6371 6.87221 27.7013C7.05663 27.891 7.20001 28.1572 7.27206 28.4135C7.67292 29.8394 8.05709 31.2703 8.41975 32.7063C8.49875 33.0192 8.67562 33.1312 8.94935 33.2035C10.3513 33.5739 11.7549 33.9387 13.1488 34.3376C13.4462 34.4228 13.7507 34.5938 13.9743 34.8069C14.9239 35.7119 15.8443 36.6476 16.8031 37.5878Z" fill="#A18168"/>
<path d="M30.3595 48C30.1975 47.7109 30.0962 47.4071 29.9398 47.1349C28.5425 44.7041 27.1355 42.2788 25.7312 39.8519C25.4191 39.3125 25.1062 38.7734 24.791 38.2005C25.919 37.0453 27.0444 35.9184 28.1859 34.8079C28.3669 34.6318 28.6042 34.4774 28.8434 34.4042C29.523 34.1962 30.217 34.0354 30.942 33.8594C31.2606 34.3937 31.5424 34.9247 31.8029 35.5148C31.1076 35.7637 30.4316 35.9465 29.7605 36.1457C29.1354 36.3312 29.0245 36.6189 29.346 37.1564C29.466 37.357 29.5766 37.5632 29.6915 37.7668C30.0056 38.3231 30.3397 38.8694 30.6267 39.4394C30.817 39.8173 30.6639 40.2252 30.3158 40.4036C29.9262 40.6033 29.6223 40.4689 29.3909 40.1289C29.2859 39.9746 29.1966 39.8095 29.1019 39.6483C28.7412 39.0344 28.3811 38.4201 28.011 37.7893C27.7048 37.9436 27.6735 38.0937 27.8307 38.3619C28.6189 39.7062 29.382 41.0653 30.1639 42.4133C30.5768 43.1251 31.0104 43.8249 31.4346 44.5301C31.2593 45.2328 31.0816 45.9349 30.9095 46.6383C30.805 47.0652 30.7089 47.4941 30.6073 47.961C30.5352 48 30.4649 48 30.3595 48Z" fill="#A18168"/>
<path d="M13.5503 39.8487C13.1207 40.6342 12.7036 41.4269 12.2585 42.2035C11.5095 43.5104 10.7403 44.8057 9.98445 46.1086C9.63393 46.7128 9.2947 47.3235 8.94982 47.9658C8.90761 48.0003 8.86594 48.0003 8.79303 48.0003C8.32181 46.3414 7.88185 44.6825 7.44211 43.0244C6.92297 43.1628 6.47226 43.2829 5.98597 43.3642C5.98388 43.2396 6.00713 43.148 6.05239 43.069C6.9512 41.5006 7.85127 39.9328 8.75403 38.3666C9.13093 37.7127 9.51465 37.0627 9.89917 36.4043C10.2782 36.6369 10.161 36.874 10.0203 37.1166C9.58262 37.8716 9.13645 38.6218 8.71429 39.3854C8.49188 39.7876 8.60976 40.1362 8.99677 40.3784C9.37308 40.614 9.6537 40.4401 9.89121 40.155C10.0198 40.0007 10.1168 39.8189 10.2202 39.6449C10.5819 39.0364 10.9401 38.4258 11.3358 37.7547C11.9498 38.3772 12.5025 38.9472 13.0682 39.5041C13.2072 39.641 13.3885 39.735 13.5503 39.8487Z" fill="#E9D4C1"/>
<path d="M13.5808 39.8355C13.3883 39.7344 13.207 39.6403 13.068 39.5034C12.5023 38.9466 11.9496 38.3766 11.3356 37.7541C10.94 38.4251 10.5817 39.0357 10.22 39.6442C10.1166 39.8183 10.0196 40 9.89103 40.1544C9.65352 40.4395 9.3729 40.6133 8.99659 40.3778C8.60958 40.1355 8.49171 39.787 8.71411 39.3847C9.13627 38.6212 9.58244 37.8709 10.0201 37.116C10.1608 36.8733 10.278 36.6362 9.89899 36.4036C9.51447 37.0621 9.13075 37.712 8.75385 38.3659C7.85109 39.9321 6.95103 41.4999 6.05221 43.0684C6.00695 43.1474 5.9837 43.2389 5.94854 43.3584C4.91246 43.6784 3.87826 43.9654 2.84344 44.2502C2.7033 44.2888 2.56011 44.3162 2.32666 44.3699C3.00056 43.1986 3.62406 42.1085 4.25374 41.022C5.00084 39.7329 5.75651 38.4487 6.50236 37.1589C7.12553 36.0813 7.73991 34.9985 8.37143 33.8887C8.92315 33.9997 9.45981 34.1476 10.0007 34.2783C10.5091 34.4011 10.932 34.6304 11.3045 35.0203C12.3356 36.0993 13.4032 37.1435 14.4739 38.2279C14.1981 38.7773 13.9048 39.3001 13.5808 39.8355Z" fill="#A18168"/>
<path d="M31.4507 44.4974C31.0103 43.8247 30.5768 43.1249 30.1638 42.4131C29.3819 41.0651 28.6189 39.706 27.8306 38.3617C27.6734 38.0935 27.7047 37.9434 28.0109 37.7891C28.381 38.4199 28.7411 39.0342 29.1018 39.6481C29.1966 39.8093 29.2858 39.9744 29.3908 40.1287C29.6222 40.4687 29.9261 40.6031 30.3157 40.4034C30.6638 40.2251 30.8169 39.8171 30.6266 39.4393C30.3396 38.8693 30.0055 38.323 29.6914 37.7666C29.5765 37.563 29.4659 37.3568 29.3459 37.1563C29.0244 36.6187 29.1353 36.331 29.7604 36.1455C30.4315 35.9464 31.1075 35.7636 31.8054 35.5488C32.117 35.9844 32.4161 36.4379 32.6899 36.9063C33.7412 38.7049 34.7846 40.5081 35.8305 42.3099C36.174 42.9016 36.5181 43.4931 36.8554 44.0885C36.8881 44.1463 36.8741 44.2307 36.8875 44.3555C35.1951 43.9028 33.5461 43.4617 31.8981 43.0208C31.7502 43.516 31.6086 43.9904 31.4507 44.4974Z" fill="#E9D4C1"/>
<path d="M25.1906 6.81458C29.1564 8.72364 31.7754 11.7381 32.7561 16.0119C33.7637 20.4034 32.7963 24.3855 29.8914 27.8622C27.6563 30.5374 24.7632 32.0645 21.3417 32.5043C17.4276 33.0074 13.9375 31.9029 10.9037 29.3818C8.24947 27.176 6.71645 24.3167 6.26036 20.9308C5.74154 17.0794 6.74526 13.5978 9.20615 10.5735C11.4438 7.82362 14.3541 6.21608 17.8539 5.7384C20.3748 5.39432 22.8238 5.75487 25.1906 6.81458ZM21.0271 29.5239C23.6724 29.1171 25.9081 27.9557 27.6362 25.8903C29.6721 23.4571 30.4752 20.6365 30.0009 17.5193C29.5089 14.2852 27.8103 11.7874 24.9866 10.1058C23.6897 9.33347 22.2972 8.79442 20.7013 8.66806C19.9697 8.6562 19.2264 8.55462 18.5085 8.64827C15.6581 9.02016 13.2659 10.2658 11.4532 12.5402C9.50882 14.9797 8.75922 17.7588 9.26673 20.8214C9.79839 24.0297 11.5003 26.5035 14.3097 28.1621C16.3571 29.3708 18.571 29.8813 21.0271 29.5239Z" fill="#A18168"/>
<path d="M20.7628 8.71533C22.2972 8.79416 23.6898 9.33322 24.9867 10.1056C27.8104 11.7872 29.509 14.2849 30.001 17.5191C30.4752 20.6362 29.6721 23.4568 27.6363 25.8901C25.9082 27.9555 23.6725 29.1168 20.9607 29.5031C20.7265 29.4519 20.5572 29.4279 20.3912 29.3897C18.0543 28.8524 16.0822 27.714 14.5184 25.8749C13.0304 24.1251 12.2339 22.0897 12.0576 19.8265C11.8962 17.7541 12.3746 15.7981 13.3958 13.9816C14.5341 11.9566 16.1555 10.4502 18.2915 9.53786C19.0872 9.19797 19.9375 8.98576 20.7628 8.71533ZM21.8946 16.1473C21.3884 15.1103 20.8813 14.0738 20.3766 13.0362C20.2212 12.7166 20.0572 12.452 19.6222 12.4581C19.2086 12.4638 19.0532 12.7183 18.9056 13.0205C18.4813 13.8892 18.013 14.7401 17.649 15.6334C17.4066 16.228 17.0037 16.3595 16.4359 16.4194C15.4524 16.5231 14.4714 16.6756 13.5007 16.8656C12.8325 16.9963 12.6822 17.5525 13.1569 18.0336C13.9019 18.7887 14.6446 19.5487 15.4324 20.2577C15.7766 20.5676 15.831 20.8648 15.7533 21.2849C15.5594 22.3341 15.3694 23.3862 15.2431 24.445C15.1541 25.1916 15.6739 25.5081 16.3467 25.1614C17.2614 24.6901 18.1744 24.2146 19.0743 23.7159C19.4209 23.5238 19.7414 23.4001 20.1501 23.6797C21.0761 24.1646 22.0039 24.6459 22.9268 25.1366C23.2031 25.2836 23.4622 25.3792 23.7551 25.1721C24.0795 24.9427 24.0769 24.6242 24.021 24.2907C23.8385 23.2014 23.6367 22.1152 23.4766 21.0227C23.4488 20.8331 23.5279 20.5598 23.6599 20.4258C24.4258 19.6484 25.2385 18.9168 25.9973 18.1329C26.189 17.9348 26.3562 17.5914 26.3316 17.3341C26.2947 16.9499 25.901 16.8419 25.5485 16.7901C25.0562 16.7178 24.5607 16.6664 24.0697 16.5869C23.3514 16.4706 22.6358 16.3372 21.8946 16.1473Z" fill="#C8934E"/>
<path d="M20.7313 8.69155C19.9367 8.98575 19.0864 9.19795 18.2907 9.53785C16.1548 10.4502 14.5333 11.9566 13.395 13.9815C12.3738 15.7981 11.8954 17.7541 12.0568 19.8264C12.2331 22.0897 13.0297 24.1251 14.5176 25.8749C16.0815 27.714 18.0535 28.8524 20.3904 29.3897C20.5564 29.4279 20.7257 29.4519 20.9219 29.5046C18.5702 29.881 16.3564 29.3706 14.309 28.1618C11.4996 26.5032 9.79766 24.0295 9.266 20.8211C8.75849 17.7585 9.50809 14.9795 11.4525 12.5399C13.2652 10.2655 15.6574 9.0199 18.5078 8.648C19.2256 8.55435 19.9689 8.65593 20.7313 8.69155Z" fill="#A15E2A"/>
<path d="M20.107 23.6342C19.7414 23.4002 19.421 23.5239 19.0743 23.716C18.1744 24.2146 17.2615 24.6902 16.3468 25.1615C15.6739 25.5082 15.1541 25.1916 15.2432 24.445C15.3695 23.3863 15.5594 22.3341 15.7534 21.285C15.831 20.8648 15.7767 20.5677 15.4324 20.2578C14.6447 19.5488 13.9019 18.7888 13.1569 18.0337C12.6823 17.5525 12.8325 16.9964 13.5008 16.8656C14.4715 16.6757 15.4525 16.5231 16.4359 16.4194C17.0038 16.3596 17.4067 16.2281 17.649 15.6334C18.0131 14.7401 18.4814 13.8893 18.9056 13.0205C19.0532 12.7183 19.2087 12.4639 19.6223 12.4581C20.0572 12.4521 20.2213 12.7167 20.3767 13.0362C20.8813 14.0739 21.3884 15.1104 21.8773 16.204C21.7107 16.3028 21.5639 16.3622 21.4117 16.3843C20.4599 16.5224 19.5062 16.6475 18.5547 16.7874C18.2195 16.8366 17.8435 16.8556 17.6993 17.2436C17.55 17.6455 17.79 17.9103 18.0611 18.1733C18.8212 18.9106 19.5798 19.6505 20.3064 20.4201C20.4625 20.5854 20.5762 20.8922 20.5473 21.1126C20.4363 21.9579 20.2594 22.7944 20.107 23.6342Z" fill="#68251E"/>
<path d="M20.128 23.657C20.2588 22.7944 20.4357 21.9578 20.5467 21.1126C20.5756 20.8922 20.4619 20.5853 20.3059 20.42C19.5792 19.6505 18.8206 18.9105 18.0605 18.1733C17.7894 17.9103 17.5494 17.6455 17.6987 17.2435C17.8429 16.8556 18.2189 16.8366 18.5541 16.7873C19.5056 16.6474 20.4593 16.5224 21.4112 16.3842C21.5633 16.3621 21.7101 16.3028 21.889 16.2358C22.6353 16.3372 23.3509 16.4706 24.0692 16.5869C24.5602 16.6664 25.0557 16.7178 25.548 16.7901C25.9005 16.8419 26.2942 16.9499 26.331 17.3342C26.3557 17.5914 26.1885 17.9348 25.9968 18.1329C25.238 18.9168 24.4253 19.6484 23.6594 20.4258C23.5274 20.5598 23.4483 20.8331 23.4761 21.0227C23.6361 22.1152 23.8379 23.2014 24.0205 24.2907C24.0764 24.6242 24.079 24.9428 23.7545 25.1721C23.4616 25.3792 23.2026 25.2836 22.9263 25.1366C22.0034 24.6459 21.0755 24.1646 20.128 23.657Z" fill="#68251E"/>
</svg>
