<svg width="53" height="52" viewBox="0 0 53 52" fill="none" xmlns="http://www.w3.org/2000/svg">
<path d="M43.9259 35.5357C45.3757 34.6277 46.8357 33.7354 48.2721 32.8067C49.4037 32.075 50.1845 31.9337 51.1689 32.683C52.1746 33.4485 52.2979 34.8275 51.4596 35.6809C50.9103 36.2401 50.2672 36.7116 49.6422 37.1912C48.0873 38.3843 46.5197 39.5608 44.9554 40.7417C42.8469 42.3334 40.7309 43.9152 38.6291 45.5157C36.7676 46.9333 34.9253 48.3759 33.0662 49.7966C32.2948 50.386 31.532 50.9955 30.711 51.5088C29.6907 52.1468 28.5784 52.0974 27.4608 51.7336C24.5817 50.7964 21.7003 49.8662 18.8193 48.9346C15.8735 47.982 12.9311 47.0181 9.97725 46.091C9.43129 45.9197 8.8394 45.838 8.26569 45.8218C6.05576 45.7597 3.84423 45.7557 1.63408 45.6993C0.6513 45.6742 0.0476391 44.9558 0.0302499 44.0466C-0.0174996 41.55 0.000766905 39.0518 0.0207896 36.5544C0.0279191 35.6652 0.857254 34.9171 1.77281 34.9141C3.58918 34.9082 5.40569 34.8997 7.22192 34.9166C8.50466 34.9286 9.65981 34.583 10.7497 33.9007C11.5798 33.381 12.4744 32.9643 13.4141 32.488C13.9694 32.2309 14.4286 31.9104 14.9379 31.763C15.628 31.5634 16.3762 31.3253 17.0647 31.4049C19.1686 31.6483 21.2552 32.0403 23.3499 32.3656C24.826 32.5948 26.3043 32.8096 27.8192 33.0484C28.4247 33.153 28.9926 33.24 29.603 33.3351C32.2164 33.7598 34.7802 34.2309 37.3612 34.571C38.7263 34.7508 40.0077 35.9522 39.5627 37.6328C33.0123 37.6353 26.5096 37.6358 20.007 37.6373C19.2169 37.6375 18.8728 37.9139 18.8774 38.5366C18.8819 39.1538 19.2234 39.4177 20.0252 39.4181C21.4547 39.4189 22.8843 39.4177 24.3301 39.4495C26.1712 40.8773 27.9869 42.285 29.8271 43.66C30.281 43.9992 30.8074 43.9589 31.2982 43.6465C33.5159 42.2353 35.7354 40.8268 37.951 39.4175C37.9479 39.4176 37.9453 39.4235 37.9677 39.41C38.0199 39.376 38.0404 39.3486 38.0888 39.3091C38.4787 39.0818 38.8315 38.8598 39.2196 38.6202C40.353 37.9104 41.4567 37.2268 42.5467 36.5222C43.0208 36.2157 43.467 35.8658 43.9259 35.5357Z" fill="#FFCFAB"/>
<path d="M43.9239 35.4872C43.4668 35.8662 43.0207 36.216 42.5465 36.5225C41.4565 37.2271 40.3528 37.9107 39.2299 38.5778C39.3401 38.2456 39.4752 37.9385 39.6103 37.6314C40.0075 35.9526 38.7261 34.7512 37.361 34.5713C34.78 34.2313 32.2162 33.7601 29.6043 33.2874C29.5639 32.7094 29.5641 32.1874 29.5653 31.6654C29.572 28.5164 29.579 25.3673 29.619 22.229C29.787 22.3948 29.94 22.5378 30.0539 22.707C30.8041 23.8215 31.542 24.9443 32.2945 26.0572C32.4184 26.2404 32.5755 26.4134 32.7506 26.5477C33.418 27.0594 34.1455 26.8805 34.8495 26.6627C36.9657 26.008 39.0723 25.3221 41.1883 24.6668C42.0846 24.3893 42.995 24.1578 43.8991 23.9053C43.9065 26.0969 43.916 28.2884 43.9208 30.48C43.9244 32.1328 43.9219 33.7856 43.9239 35.4872Z" fill="#E3B192"/>
<path d="M29.5857 22.2178C29.5788 25.3668 29.5718 28.5159 29.565 31.6649C29.5639 32.1869 29.5636 32.7089 29.5616 33.2789C28.9922 33.2398 28.4243 33.1528 27.8194 32.9987C27.777 29.3609 27.7716 25.7902 27.7699 22.1813C28.0392 21.6628 28.3048 21.1825 28.5939 20.6597C28.4071 20.5871 28.2534 20.5141 28.0921 20.4666C25.2197 19.6198 22.3452 18.7802 19.4736 17.9304C17.4876 17.3427 15.5054 16.742 13.5215 16.1472C14.6469 15.803 15.768 15.4442 16.8985 15.1178C19.2363 14.443 21.5789 13.7848 23.9201 13.1217C24.2001 13.0424 24.4837 12.9755 24.8411 12.9097C25.8142 14.0801 26.7177 15.2392 27.6059 16.4099C27.8936 16.7891 28.222 17.0618 28.7589 17.0709C29.3473 17.028 29.6242 16.6166 29.9221 16.2298C30.7802 15.1151 31.6408 14.0022 32.5004 12.8887C34.2095 13.3646 35.9203 13.8347 37.6274 14.3181C39.6789 14.8989 41.7272 15.491 43.7695 16.1375C38.7658 17.6761 33.7694 19.1555 28.7677 20.6364C29.0644 21.21 29.325 21.7139 29.5857 22.2178Z" fill="#BA7D5F"/>
<path d="M13.4888 16.0952C15.5058 16.6749 17.488 17.2755 19.474 17.8632C22.3455 18.713 25.2201 19.5526 28.0925 20.3994C28.2537 20.4469 28.4075 20.5199 28.5943 20.5925C28.3052 21.1153 28.0396 21.5956 27.7382 22.1268C27.5826 22.3244 27.4503 22.4627 27.345 22.6192C26.5963 23.732 25.8562 24.8505 25.1072 25.963C24.5982 26.7189 23.9128 26.9971 23.038 26.7418C21.8013 26.3808 20.5779 25.9746 19.3479 25.5908C17.3704 24.9737 15.3922 24.3592 13.4142 23.7436C12.7944 23.5326 12.1606 23.3549 11.5585 23.1018C10.9027 22.8262 10.4773 21.6586 10.8926 20.8748C11.737 19.2814 12.6002 17.698 13.4888 16.0952Z" fill="#A15E2A"/>
<path d="M29.6187 22.2286C29.3249 21.7139 29.0643 21.21 28.7676 20.6365C33.7693 19.1555 38.7657 17.6761 43.7907 16.1709C43.9025 16.2147 44.0158 16.2679 44.0641 16.3566C44.8517 17.8022 45.6552 19.24 46.4049 20.7052C47.0547 21.9752 46.2716 23.1826 45.2607 23.4543C44.8196 23.5728 44.383 23.7078 43.9215 23.8701C42.9947 24.1573 42.0843 24.3889 41.188 24.6664C39.072 25.3217 36.9654 26.0075 34.8492 26.6622C34.1452 26.88 33.4177 27.059 32.7503 26.5472C32.5752 26.413 32.4181 26.24 32.2942 26.0567C31.5416 24.9439 30.8038 23.8211 30.0536 22.7066C29.9397 22.5374 29.7867 22.3944 29.6187 22.2286Z" fill="#A15E2A"/>
<path d="M13.4194 23.8594C15.3921 24.4266 17.3703 25.0411 19.3478 25.6582C20.5779 26.042 21.8012 26.4482 23.0379 26.8092C23.9127 27.0645 24.5981 26.7863 25.1071 26.0304C25.8561 24.9179 26.5962 23.7994 27.3449 22.6866C27.4502 22.5301 27.5825 22.3918 27.7343 22.2324C27.7719 25.7904 27.7773 29.3611 27.7821 32.9813C26.3042 32.8096 24.8259 32.5949 23.3498 32.3656C21.2551 32.0403 19.1685 31.6483 17.0646 31.405C16.3761 31.3253 15.6279 31.5635 14.9378 31.7631C14.4285 31.9104 13.9693 32.231 13.4519 32.4828C13.4189 29.6301 13.4218 26.769 13.4194 23.8594Z" fill="#E3B192"/>
<path d="M28.7208 17.0627C28.2221 17.0617 27.8937 16.789 27.6061 16.4098C26.7178 15.2391 25.8144 14.08 24.883 12.9027C23.2115 10.7152 21.5669 8.54638 19.9472 6.35907C19.7909 6.14796 19.7898 5.82194 19.7729 5.506C22.7347 5.46273 25.6402 5.46273 28.6859 5.46273C27.1285 3.57036 25.6735 1.80262 24.2186 0.0348702C27.1227 0.0295378 30.0268 0.0242054 32.9776 0.0651494C32.9939 0.191611 32.982 0.287253 32.9301 0.349654C32.1744 1.25821 31.4071 2.15714 30.6555 3.06905C30.0044 3.85903 29.3697 4.66252 28.7268 5.50949C28.7242 9.39353 28.7225 13.2281 28.7208 17.0627Z" fill="#60DCDD"/>
<path d="M28.7594 17.071C28.7229 13.2283 28.7246 9.39366 28.7762 5.51021C31.7559 5.46088 34.6856 5.46042 37.6153 5.45996C37.7576 6.06837 37.3604 6.44491 37.0376 6.87134C35.5764 8.80166 34.1312 10.744 32.6787 12.6809C32.6376 12.7357 32.5791 12.7775 32.5148 12.8571C31.6413 14.0023 30.7808 15.1152 29.9226 16.2298C29.6248 16.6167 29.3479 17.0281 28.7594 17.071Z" fill="#53C5C6"/>
<path d="M37.6226 5.42086C34.6857 5.46043 31.756 5.4609 28.7773 5.46077C29.3703 4.66267 30.005 3.85918 30.6561 3.0692C31.4076 2.15729 32.1749 1.25835 32.9306 0.349798C32.9825 0.287398 32.9945 0.191755 33.0268 0.0748687C34.0531 -0.112451 34.8319 0.138193 35.2504 1.20779C35.457 1.73563 35.8486 2.1897 36.1451 2.68398C36.6059 3.45216 37.0602 4.22428 37.5085 4.99979C37.5738 5.11273 37.5906 5.25373 37.6226 5.42086Z" fill="#78EDFC"/>
<path d="M24.1722 0.0276443C25.674 1.80287 27.1289 3.57062 28.6864 5.46298C25.6406 5.46298 22.7351 5.46298 19.7817 5.46278C20.0568 4.83944 20.3649 4.20803 20.7062 3.59511C21.2144 2.6824 21.7563 1.78846 22.2646 0.875769C22.6817 0.126845 23.3266 -0.0830899 24.1722 0.0276443Z" fill="#78EDFC"/>
<path d="M39.5628 37.6328C39.4755 37.9382 39.3404 38.2453 39.1949 38.5951C38.8316 38.8599 38.4788 39.0819 38.0674 39.3233C37.9808 39.3643 37.9597 39.3912 37.9454 39.4235C37.9454 39.4235 37.9479 39.4176 37.9015 39.4171C33.3413 39.4169 28.8276 39.4171 24.3139 39.4174C22.8843 39.4178 21.4548 39.4189 20.0253 39.4181C19.2235 39.4177 18.882 39.1538 18.8775 38.5366C18.8729 37.9139 19.217 37.6375 20.0071 37.6373C26.5097 37.6359 33.0123 37.6353 39.5628 37.6328Z" fill="#FA967A"/>
<path d="M24.3301 39.4496C28.8274 39.4172 33.3411 39.4169 37.9045 39.417C35.7353 40.8269 33.5159 42.2354 31.2981 43.6466C30.8073 43.9589 30.2809 43.9993 29.827 43.6601C27.9869 42.285 26.1712 40.8773 24.3301 39.4496Z" fill="#E3B192"/>
</svg>
