<svg width="100" height="46" viewBox="0 0 100 46" fill="none" xmlns="http://www.w3.org/2000/svg">
<path d="M38.436 35.5422C38.436 24.8811 38.436 14.22 38.4739 3.47947C38.8995 1.68408 40.2544 0.443829 42.1321 0.410718C45.3647 0.353716 48.5991 0.403569 51.8389 0.437015C51.845 0.465455 51.8585 0.522102 51.8521 0.578545C51.8458 3.97575 51.8458 7.31651 51.8458 10.6573C51.8912 10.6848 51.9367 10.7123 51.9821 10.7398C52.3957 10.2396 52.8093 9.73939 53.3391 9.09871C53.8888 9.77198 54.3296 10.3117 54.8913 10.9997C55.4089 10.3496 55.8518 9.79329 56.4107 9.09129C56.9848 9.75828 57.437 10.2837 57.9782 10.9125C58.4531 10.3233 58.8913 9.77982 59.4294 9.11222C59.9768 9.78011 60.4188 10.3194 60.9725 10.9951C61.495 10.3308 61.9347 9.77164 62.3768 9.20962C62.9427 9.76855 63.3657 10.1862 63.7887 10.6039C63.8349 10.5702 63.881 10.5364 63.9272 10.5026C63.9272 7.17929 63.9272 3.85598 63.9394 0.500322C63.9582 0.445874 63.9649 0.423782 64.0261 0.398545C67.2151 0.394736 70.3494 0.389432 73.4838 0.394988C75.6863 0.398892 77.418 2.17542 77.3844 4.42343C77.3461 6.98341 77.381 9.54457 77.38 12.1625C77.3738 19.9901 77.3715 27.7604 77.3151 35.5399C71.5776 35.5509 65.8942 35.5484 60.2109 35.5644C59.8369 35.5654 59.6566 35.4032 59.4747 35.1071C58.6801 33.8129 57.6299 32.7917 56.3148 32.0862C52.2231 29.8908 47.5629 31.158 44.9961 35.133C44.8692 35.3295 44.5862 35.5334 44.3735 35.5362C42.3946 35.5629 40.4153 35.5463 38.436 35.5422ZM63.9211 10.7009L63.8975 10.6848C63.8975 10.6848 63.8997 10.7172 63.9211 10.7009Z" fill="#C68E7A"/>
<path d="M100 39.2655C98.318 39.3213 96.6357 39.3216 94.8607 39.2919C94.6805 37.731 94.2527 36.3483 93.1377 35.2026C91.6641 33.6884 89.9415 32.9988 87.7873 33.2519C84.9119 33.5897 82.451 36.1958 82.4407 39.334C76.6292 39.3297 70.8177 39.325 65.0061 39.3215C62.962 39.3202 60.9179 39.3222 58.7983 39.2823C58.6942 39.0694 58.6443 38.8973 58.6404 38.7242C58.6046 37.1508 57.8664 35.8624 56.7587 34.8435C55.2764 33.4802 53.4757 32.8853 51.4224 33.2798C50.1089 33.5321 48.9917 34.1685 48.0799 35.1077C46.944 36.2779 46.4652 37.7386 46.3679 39.334C43.7615 39.3297 41.1551 39.3254 38.4924 39.3211C38.436 37.896 38.436 36.4709 38.436 34.9903C40.4591 34.9387 42.4822 34.9549 44.5049 34.929C44.7223 34.9262 45.0116 34.7281 45.1412 34.5373C47.7649 30.6762 52.5281 29.4453 56.7104 31.5778C58.0545 32.2631 59.128 33.255 59.9402 34.5121C60.1261 34.7998 60.3104 34.9573 60.6927 34.9563C66.5018 34.9408 72.3109 34.9432 78.2316 34.9416C78.9442 34.9433 79.5484 34.908 80.1455 34.9571C80.7303 35.0052 81.0563 34.7992 81.3959 34.308C82.9541 32.0544 85.1549 30.7673 87.9089 30.5812C91.3713 30.3472 94.0874 31.7241 96.0439 34.5614C96.1672 34.7402 96.4335 34.9198 96.6408 34.9288C97.4396 34.9631 98.2415 34.9282 99.0422 34.919C99.3261 34.9242 99.6099 34.9294 99.9471 34.9347C100 36.3598 100 37.7849 100 39.2655Z" fill="#3C271E"/>
<path d="M98.7427 35.4603C97.9221 35.5268 97.0988 35.5634 96.2787 35.5275C96.0659 35.5181 95.7925 35.33 95.6659 35.1427C93.6571 32.1709 90.8686 30.7287 87.3137 30.9738C84.4863 31.1687 82.2268 32.5169 80.627 34.8773C80.2783 35.3917 79.9436 35.6075 79.3432 35.5571C78.7302 35.5057 78.1099 35.5427 77.435 35.5315C77.3797 27.6167 77.382 19.7113 77.3886 11.7477C81.4815 11.6909 85.5703 11.6845 89.659 11.699C90.7742 11.703 91.8659 11.8257 92.918 12.2909C94.373 12.9344 95.4946 13.9716 95.9843 15.4317C96.9932 18.4399 97.8173 21.5109 98.7073 24.5591C98.7633 24.7508 98.7391 24.9683 98.7392 25.1739C98.7411 28.5836 98.7409 31.9934 98.7427 35.4603ZM95.536 24.5094C94.8313 22.0346 94.1445 19.5545 93.4148 17.0871C92.9863 15.638 91.8887 14.7972 90.4091 14.7891C87.097 14.7709 83.7847 14.7904 80.3729 14.8071C80.3329 14.9372 80.2581 15.0672 80.2578 15.1974C80.2513 18.2374 80.259 21.2774 80.2459 24.3173C80.244 24.7497 80.4349 24.8298 80.8086 24.8291C85.5582 24.8212 90.3078 24.8261 95.0574 24.8149C95.2198 24.8145 95.3819 24.6801 95.536 24.5094Z" fill="#DBC2AC"/>
<path d="M64.8205 0.387341C64.8205 3.57784 64.8205 6.76834 64.8205 9.95884C64.7725 9.99127 64.7244 10.0237 64.6764 10.0561C64.2365 9.65513 63.7967 9.25412 63.2081 8.71754C62.7484 9.2571 62.291 9.7939 61.7477 10.4316C61.1719 9.78297 60.7122 9.26522 60.143 8.62403C59.5833 9.26494 59.1277 9.78675 58.6338 10.3523C58.071 9.74864 57.6007 9.24427 57.0037 8.60394C56.4225 9.27787 55.9618 9.81199 55.4236 10.4361C54.8394 9.77562 54.3811 9.25742 53.8094 8.61106C53.2584 9.22613 52.8283 9.70634 52.3982 10.1865C52.3509 10.1601 52.3036 10.1337 52.2563 10.1073C52.2563 6.90008 52.2563 3.69282 52.3192 0.429663C56.5282 0.37829 60.6743 0.382815 64.8205 0.387341Z" fill="black"/>
<path d="M82.4111 39.4443C82.4198 36.1472 84.9207 33.4539 87.8428 33.1047C90.032 32.8432 91.7826 33.5558 93.2802 35.1207C94.4133 36.3047 94.848 37.7338 94.9748 39.3499C94.9088 42.4409 92.68 45.0281 89.7102 45.52C87.5587 45.8764 85.7383 45.226 84.2351 43.7895C83.0563 42.663 82.3902 41.1976 82.4111 39.4443ZM91.1991 39.3147C91.1563 39.0546 91.1497 38.782 91.0644 38.5368C90.7383 37.599 90.0861 36.98 89.1057 36.8242C88.0857 36.6622 87.1949 36.9933 86.6155 37.8771C86.0643 38.7179 85.9975 39.6291 86.5194 40.5283C87.049 41.4409 88.09 41.9555 89.0274 41.788C90.2507 41.5695 90.9587 40.7956 91.1991 39.3147Z" fill="#3C271E"/>
<path d="M45.9746 39.4502C46.0717 37.7575 46.5579 36.2562 47.7114 35.0536C48.6372 34.0882 49.7717 33.4342 51.1055 33.1748C53.1905 32.7695 55.0191 33.3808 56.5243 34.782C57.6492 35.8292 58.3988 37.1534 58.4351 38.7705C58.4391 38.9484 58.4897 39.1252 58.5388 39.3495C58.4604 42.4096 56.5071 44.7525 53.6767 45.4424C51.0042 46.0937 48.2396 44.8723 46.8175 42.4371C46.2771 41.5116 46.0313 40.5454 45.9746 39.4502ZM50.187 40.7031C50.2803 40.8099 50.3683 40.9218 50.4676 41.0227C51.545 42.1177 53.1575 42.0617 54.1697 40.8959C55.106 39.8175 54.9115 38.185 53.7417 37.304C52.8049 36.5984 51.5083 36.6474 50.5983 37.4226C49.6789 38.206 49.5076 39.401 50.187 40.7031Z" fill="#3C271E"/>
<path d="M91.2053 39.3977C90.967 40.8245 90.2603 41.597 89.0392 41.8151C88.1035 41.9823 87.0644 41.4687 86.5357 40.5578C86.0148 39.6602 86.0815 38.7506 86.6317 37.9113C87.21 37.0292 88.0992 36.6986 89.1173 36.8604C90.096 37.0159 90.747 37.6338 91.0725 38.5698C91.1576 38.8146 91.1643 39.0867 91.2053 39.3977Z" fill="#ABB2B9"/>
<path d="M50.1409 40.6972C49.4813 39.4278 49.6537 38.2271 50.5789 37.4401C51.4945 36.6612 52.7993 36.612 53.742 37.3209C54.9191 38.2061 55.1148 39.8462 54.1726 40.9296C53.1541 42.1008 51.5314 42.1571 50.4473 41.057C50.3474 40.9557 50.2589 40.8432 50.1409 40.6972Z" fill="#ABB2B9"/>
<path d="M17.0767 7.92334H29.6408" stroke="#68251E" stroke-width="4" stroke-linecap="round"/>
<path d="M10.7949 15.4614L29.6411 15.4614" stroke="#68251E" stroke-width="4" stroke-linecap="round"/>
<path d="M2 25.5132L29.6411 25.5132" stroke="#68251E" stroke-width="4" stroke-linecap="round"/>
</svg>
