<svg width="46" height="47" viewBox="0 0 46 47" fill="none" xmlns="http://www.w3.org/2000/svg">
<path d="M7.35845e-10 39.2562C-1.77236e-07 28.1606 -1.75032e-07 17.065 0.0413809 5.93361C14.205 5.89742 28.3273 5.89701 42.4495 5.89572C42.5379 5.89572 42.6264 5.8836 42.7364 5.88607C42.7721 5.90158 42.7863 5.90815 42.8006 5.95465C42.8012 10.9418 42.803 15.889 42.795 20.8362C42.7947 20.9838 42.6907 21.1313 42.6314 21.2412C42.5463 20.7387 42.4852 20.2691 42.3803 19.8096C41.7078 16.8636 40.2023 14.4161 37.8703 12.5057C37.1447 11.9112 36.2979 11.4645 35.4871 10.9261C34.726 10.6159 33.9957 10.2949 33.2405 10.0504C31.2998 9.42212 29.3081 9.33724 27.306 9.65084C25.2456 9.97356 23.3754 10.7862 21.6778 11.9966C21.3555 12.2265 21.0319 12.4546 20.6698 12.6766C18.4227 12.6673 16.2148 12.6647 14.0069 12.6626C13.755 12.6624 13.5016 12.6477 13.2516 12.6702C12.8693 12.7045 12.5662 13.03 12.5705 13.3697C12.5748 13.7118 12.8806 14.0202 13.2638 14.0595C13.3812 14.0715 13.5007 14.0633 13.6192 14.0635C15.5455 14.0667 17.4719 14.0697 19.3852 14.0996C19.2521 14.275 19.124 14.4179 19.0132 14.5732C18.5958 15.1574 18.1841 15.7457 17.7344 16.3298C17.3737 16.3395 17.049 16.3611 16.7242 16.3624C15.5996 16.367 14.475 16.3682 13.3505 16.3622C13.0239 16.3605 12.7688 16.4569 12.6391 16.7763C12.4449 17.2543 12.7838 17.714 13.3545 17.7186C14.6269 17.7287 15.8995 17.724 17.1597 17.7553C16.8949 18.5924 16.6426 19.3995 16.347 20.2058C15.3885 20.2049 14.4734 20.2041 13.5582 20.2049C12.9065 20.2055 12.5675 20.4447 12.5752 20.8954C12.5826 21.3345 12.9052 21.5577 13.5351 21.5594C14.4207 21.5619 15.3063 21.5642 16.1938 21.6071C16.2237 22.4583 16.2307 23.2703 16.284 24.0793C16.3911 25.7051 16.8462 27.2399 17.5902 28.685C17.8997 29.286 18.2618 29.8599 18.5687 30.4493C17.7264 31.1355 16.9154 31.8183 16.0769 32.4865C15.4964 31.9871 15.3177 31.9939 14.7912 32.5199C14.5507 32.7602 14.3104 33.0007 14.0701 33.2411C13.4682 33.8431 13.4671 33.8513 13.8543 34.5423C13.5896 34.7212 13.346 34.8848 13.1251 35.0748C11.6034 36.3828 10.0886 37.6988 8.56645 39.0064C8.17883 39.3393 7.77281 39.6509 7.33425 39.9703C5.3375 39.9683 3.38169 39.9591 1.42606 39.9739C0.863718 39.9781 0.438853 39.7989 0.162778 39.2972C0.144395 39.2638 0.0558899 39.269 7.35845e-10 39.2562ZM9.5239 14.5626C9.52376 12.933 9.52635 11.3034 9.52136 9.67391C9.52026 9.31397 9.23458 9.01225 8.89059 9.00754C8.51171 9.00235 8.28405 9.21649 8.19919 9.57363C8.16909 9.70034 8.1871 9.83903 8.18709 9.97225C8.18669 14.6683 8.18672 19.3644 8.18694 24.0605C8.18695 24.1789 8.17695 24.2992 8.1936 24.4155C8.25805 24.8657 8.67706 25.1303 9.10709 24.9938C9.47398 24.8773 9.52651 24.5866 9.52611 24.2511C9.52226 21.0512 9.52387 17.8514 9.5239 14.5626ZM8.18675 34.8507C8.18679 35.1764 8.18072 35.5022 8.18833 35.8277C8.1995 36.3057 8.45664 36.589 8.86465 36.5871C9.32794 36.5849 9.52084 36.3729 9.52267 35.8423C9.5264 34.7615 9.52391 33.6808 9.52389 32.6001C9.52386 31.2677 9.52603 29.9353 9.52235 28.6029C9.5211 28.15 9.34385 27.9631 8.93075 27.9525C8.44303 27.9401 8.18799 28.1994 8.18751 28.7217C8.18566 30.7351 8.18675 32.7485 8.18675 34.8507ZM10.7714 9.53076C10.764 10.1178 10.9745 10.3894 11.5197 10.3978C12.6573 10.4154 13.7954 10.4134 14.9331 10.3979C15.3987 10.3915 15.7033 10.0901 15.7037 9.70574C15.704 9.30167 15.38 9.00975 14.8984 9.00698C13.7901 9.00063 12.6818 9.00912 11.5736 9.0024C11.2129 9.00022 10.9421 9.12418 10.7714 9.53076ZM6.86308 13.742C7.05495 13.1152 6.85059 12.677 6.30007 12.6614C5.26288 12.6322 4.22312 12.6261 3.18661 12.6664C2.57183 12.6903 2.25431 13.351 2.63837 13.7759C2.79274 13.9467 3.0996 14.0506 3.34138 14.0589C4.27457 14.0909 5.21007 14.0894 6.14339 14.0594C6.37023 14.052 6.59202 13.888 6.86308 13.742ZM4.76073 10.4224C5.21931 10.4223 5.67823 10.4335 6.13636 10.4192C6.68264 10.4021 6.94777 10.1536 6.94295 9.69594C6.93817 9.24141 6.6599 9.0043 6.11199 9.00213C5.19486 8.99849 4.2777 8.99956 3.36056 9.0017C2.79282 9.00302 2.48957 9.255 2.49215 9.71548C2.49452 10.141 2.81005 10.4098 3.34051 10.4205C3.78411 10.4294 4.22803 10.4224 4.76073 10.4224ZM6.23976 36.5877C6.78052 36.5395 6.95633 36.3643 6.94252 35.8877C6.9297 35.445 6.72173 35.2551 6.22024 35.2526C5.24388 35.2478 4.26745 35.2476 3.29108 35.2526C2.78999 35.2551 2.49758 35.5161 2.49225 35.9452C2.48739 36.3366 2.78666 36.5861 3.27264 36.5872C4.23423 36.5893 5.19583 36.5878 6.23976 36.5877ZM5.55847 23.6835C4.78777 23.6836 4.01699 23.6776 3.24638 23.686C2.7812 23.691 2.49613 23.9644 2.49227 24.3803C2.48876 24.758 2.78323 25.0177 3.23298 25.0193C4.22599 25.0227 5.21904 25.0236 6.21205 25.0191C6.73598 25.0167 6.94773 24.8152 6.94267 24.346C6.93818 23.9288 6.66215 23.6886 6.1796 23.6839C6.00176 23.6821 5.82389 23.6835 5.55847 23.6835ZM4.49396 32.9383C5.0571 32.9383 5.62025 32.9405 6.18337 32.9376C6.66517 32.935 6.93964 32.6916 6.94273 32.2722C6.94617 31.804 6.73476 31.605 6.2086 31.6027C5.21571 31.5984 4.22279 31.5992 3.2299 31.6026C2.80306 31.604 2.50959 31.8475 2.49225 32.2C2.47182 32.6152 2.75777 32.9208 3.20481 32.9353C3.60452 32.9483 4.00497 32.9382 4.49396 32.9383ZM2.50448 17.1871C2.62113 17.5369 2.85663 17.7223 3.23247 17.7218C4.22594 17.7204 5.2195 17.7283 6.21288 17.7182C6.67704 17.7135 6.95635 17.4269 6.94252 17.0122C6.92785 16.5725 6.71859 16.3877 6.20951 16.3856C5.21604 16.3816 4.22254 16.3817 3.22907 16.3856C2.74223 16.3876 2.52289 16.6122 2.50448 17.1871Z" fill="#EEDFBB"/>
<path d="M45.4724 5.89608C45.384 5.90254 42.5385 5.89607 42.4501 5.89608C28.3278 5.89736 14.2056 5.89777 0.0419109 5.89249C0.000529843 4.19417 0.000529837 2.50157 0.0305027 0.782362C0.030532 0.0136787 0.0304734 0.782362 0.030532 0.0136787C13.6769 0.0136787 31.9148 -0.0170984 45.6059 0.0136787C45.7043 0.110832 45.5259 0.200725 45.4724 0.280637C46.0609 0.67817 45.4924 1.24768 45.4724 1.97137C45.4362 3.28754 45.4722 4.5789 45.4724 5.89608ZM8.86107 2.52187C8.66012 2.82121 8.66026 3.13951 8.92949 3.36238C9.09767 3.5016 9.41071 3.62766 9.58161 3.56122C9.80016 3.47625 10.0479 3.20863 10.0833 2.98767C10.1147 2.79233 9.9193 2.49718 9.73983 2.34612C9.46245 2.11265 9.15684 2.2369 8.86107 2.52187ZM6.07705 2.28091C5.65752 2.53065 5.51608 2.83041 5.65597 3.17338C5.79227 3.50755 6.14207 3.68689 6.48157 3.58334C6.84011 3.47398 7.00911 3.21958 6.97019 2.84962C6.92852 2.4534 6.63084 2.24942 6.07705 2.28091ZM3.65868 2.46017C3.13943 2.10404 2.54107 2.27307 2.51726 2.81949C2.5072 3.05057 2.66903 3.39543 2.85712 3.49901C3.04593 3.60299 3.42471 3.55607 3.61293 3.42324C3.92344 3.20409 3.92367 2.84327 3.65868 2.46017Z" fill="#C68E7A"/>
<path d="M45.5613 39.2143C45.5056 39.2683 45.4172 39.2626 45.3992 39.2954C45.1173 39.8105 44.6801 39.9934 44.1071 39.9737C43.4035 39.9496 42.6986 39.9673 41.9575 39.9298C42.5621 39.4361 42.802 38.7889 42.8021 38.0296C42.8026 33.5439 42.8036 29.0581 42.7954 24.5724C42.7951 24.4549 42.6903 24.3375 42.6314 24.181C42.6309 23.1875 42.6332 22.2331 42.6355 21.2787C42.6912 21.1311 42.7952 20.9836 42.7954 20.836C42.8035 15.8888 42.8016 10.9416 42.8423 5.94728C43.7761 5.89552 44.6687 5.89088 45.5613 5.88623C45.5613 16.9817 45.5613 28.0772 45.5613 39.2143Z" fill="#C68E7A"/>
<path d="M9.97006 45.9901C9.97006 45.9901 7.89309 46.4054 6.88428 43.6139C6.98844 43.6022 7.06077 43.6165 7.1301 43.6396C8.4932 44.0957 9.71872 43.8475 10.6844 42.7859C12.2086 41.1102 13.6799 39.3863 15.1626 37.6733C15.4666 37.3221 15.722 36.9288 16.0211 36.5547C16.0424 36.5545 16.0851 36.5542 16.0896 36.5845C16.195 36.7397 16.2878 36.8722 16.3982 36.9879C16.8261 37.4367 17.2597 37.8801 17.6792 38.3532C17.26 38.8945 16.8526 39.4081 16.4453 39.9217C16.0178 40.43 15.5974 40.9445 15.1614 41.4454C14.3186 42.4135 13.4988 43.4047 12.6057 44.3245C12.1616 44.782 10.9789 45.9901 9.97006 45.9901Z" fill="#DDA077"/>
<path d="M16.3901 20.2069C16.6425 19.3999 16.8949 18.5928 17.1719 17.7259C17.3878 17.2217 17.579 16.7773 17.7703 16.3329C18.1841 15.7461 18.5958 15.1578 19.0131 14.5735C19.124 14.4183 19.2521 14.2754 19.4096 14.0832C19.6543 13.8156 19.8612 13.5913 20.0692 13.3679C20.2819 13.1394 20.4956 12.9119 20.7089 12.6839C21.0319 12.455 21.3554 12.2269 21.6777 11.997C23.3753 10.7866 25.2456 9.97394 27.3059 9.65122C29.308 9.33762 31.2997 9.4225 33.2404 10.0508C33.9956 10.2953 34.726 10.6162 35.4894 10.958C35.5287 11.0539 35.5353 11.1078 35.5656 11.1323C36.6965 12.0473 37.5592 13.1892 38.29 14.429C39.2637 16.0809 39.89 17.876 40.0156 19.7834C40.0984 21.0418 39.9731 22.3224 39.8409 23.5826C39.7771 24.1913 39.4827 24.7759 39.2998 25.3378C39.3386 25.1315 39.3704 24.9586 39.4111 24.7471C39.474 24.2786 39.5279 23.8489 39.5888 23.3778C39.5386 22.5354 39.4813 21.7342 39.426 20.8958C39.3108 20.429 39.1936 19.9995 39.0741 19.5368C39.0523 19.4326 39.0373 19.3599 39.0128 19.2907C37.2887 14.4324 32.0556 11.6182 27.0518 12.8653C25.1563 13.3377 23.5066 14.2459 22.1411 15.7002C21.7508 16.1718 21.3859 16.6286 21.0015 17.1101C19.2316 19.836 18.8168 22.7451 19.7676 25.8035C21.2646 30.6189 26.0598 33.5528 31.0237 32.7824C32.6703 32.5269 34.1378 31.8712 35.4992 30.973C35.4053 31.1329 35.333 31.2877 35.2129 31.3811C34.2431 32.1346 33.2134 32.7878 32.0803 33.2776C30.5738 33.9288 28.9953 34.2655 27.3678 34.355C25.6008 34.4522 23.9187 34.0115 22.267 33.4345C21.9629 33.3283 21.658 33.2243 21.3546 33.1182C21.3558 33.1172 21.3558 33.1193 21.3434 33.0987C21.28 33.091 21.2289 33.1039 21.1512 33.1038C20.7579 32.7729 20.3914 32.4549 20.0116 32.11C19.5322 31.5376 19.066 30.992 18.5998 30.4465C18.2617 29.8602 17.8996 29.2864 17.5902 28.6854C16.8462 27.2403 16.391 25.7054 16.2839 24.0797C16.2306 23.2707 16.2236 22.4586 16.2173 21.5787C16.2893 21.0753 16.3397 20.6411 16.3901 20.2069Z" fill="#68251E"/>
<path d="M21.3535 33.1196C21.658 33.2246 21.9629 33.3285 22.267 33.4348C23.9187 34.0118 25.6008 34.4525 27.3678 34.3553C28.9953 34.2658 30.5738 33.929 32.0803 33.2779C33.2134 32.7881 34.2431 32.1349 35.2129 31.3813C35.333 31.288 35.4053 31.1331 35.5118 30.9546C35.5748 30.8694 35.6256 30.8364 35.7045 30.8012C35.7745 30.7673 35.8165 30.7354 35.8592 30.7071C35.8598 30.7106 35.8527 30.7108 35.8742 30.7016C35.913 30.667 35.9304 30.6417 35.9481 30.6197C35.9486 30.623 35.9419 30.6227 35.9634 30.6132C36.0025 30.5786 36.0201 30.5533 36.0378 30.5314C36.038 30.5347 36.0313 30.5345 36.0526 30.5251C36.0918 30.491 36.1098 30.4663 36.1281 30.4445C36.1283 30.4474 36.1227 30.4467 36.1431 30.4373C36.1822 30.4051 36.2009 30.3822 36.2358 30.3348C36.7194 29.7648 37.1867 29.2194 37.6788 28.6576C37.9763 28.1815 38.2491 27.7217 38.5435 27.238C38.8077 26.5999 39.0502 25.9858 39.2928 25.3716C39.4827 24.7761 39.7771 24.1916 39.841 23.5828C39.9731 22.3227 40.0984 21.042 40.0156 19.7837C39.89 17.8763 39.2637 16.0812 38.29 14.4292C37.5592 13.1894 36.6965 12.0476 35.5656 11.1326C35.5353 11.1081 35.5287 11.0542 35.5088 10.9824C36.2978 11.4652 37.1446 11.9119 37.8703 12.5064C40.2023 14.4168 41.7077 16.8642 42.3802 19.8103C42.4851 20.2698 42.5462 20.7393 42.6313 21.2419C42.6327 22.2339 42.6304 23.1883 42.6272 24.2194C42.6004 24.456 42.5751 24.616 42.5486 24.7759C41.887 28.7672 39.8566 31.8796 36.4248 34.0028C32.7003 36.3071 28.7344 36.6091 24.6517 35.0589C23.6649 34.6842 22.7508 34.1179 21.7891 33.6143C21.6344 33.4325 21.494 33.276 21.3535 33.1196Z" fill="#3E1213"/>
<path d="M16.0174 36.5894C15.7396 36.9633 15.4842 37.3566 15.1803 37.7078C13.6976 39.4208 12.2262 41.1447 10.702 42.8204C9.73636 43.882 8.51084 44.1302 7.14774 43.6741C7.0784 43.6509 7.00608 43.6367 6.90095 43.6169C6.4282 42.5272 6.4728 41.4661 7.05762 40.441C7.14136 40.2942 7.26293 40.169 7.3711 40.0034C7.77276 39.6515 8.17878 39.34 8.5664 39.007C10.0885 37.6995 11.6033 36.3834 13.125 35.0754C13.346 34.8855 13.5895 34.7218 13.8807 34.5557C14.6316 35.24 15.3245 35.9147 16.0174 36.5894Z" fill="#FCC493"/>
<path d="M9.52428 14.6069C9.52424 17.8513 9.52263 21.0511 9.52648 24.251C9.52689 24.5865 9.47435 24.8772 9.10746 24.9937C8.67743 25.1302 8.25842 24.8656 8.19397 24.4154C8.17732 24.2991 8.18732 24.1788 8.18731 24.0603C8.18709 19.3643 8.18706 14.6682 8.18746 9.97213C8.18747 9.83891 8.16947 9.70022 8.19957 9.57351C8.28442 9.21637 8.51208 9.00223 8.89096 9.00742C9.23495 9.01213 9.52063 9.31385 9.52173 9.67379C9.52672 11.3033 9.52413 12.9329 9.52428 14.6069Z" fill="#C8934E"/>
<path d="M8.18682 34.8068C8.18683 32.749 8.18574 30.7356 8.18759 28.7222C8.18807 28.1999 8.44311 27.9406 8.93083 27.9531C9.34393 27.9636 9.52118 28.1505 9.52243 28.6034C9.52611 29.9358 9.52393 31.2682 9.52397 32.6006C9.52399 33.6813 9.52647 34.7621 9.52275 35.8428C9.52091 36.3734 9.32802 36.5854 8.86473 36.5876C8.45671 36.5895 8.19958 36.3062 8.18841 35.8282C8.1808 35.5027 8.18687 35.1769 8.18682 34.8068Z" fill="#C8934E"/>
<path d="M16.0382 36.5888C15.324 35.9143 14.6311 35.2396 13.9118 34.5522C13.4665 33.8515 13.4677 33.8433 14.0695 33.2413C14.3099 33.0009 14.5502 32.7604 14.7907 32.5202C15.3172 31.9941 15.4959 31.9873 16.0901 32.5123C16.7168 33.1557 17.3023 33.7589 17.8875 34.3852C17.8873 34.4236 17.8873 34.439 17.8839 34.485C17.2877 35.2065 16.695 35.8974 16.1022 36.5883C16.1022 36.5883 16.0596 36.5885 16.0382 36.5888Z" fill="#AA6C53"/>
<path d="M20.6701 12.6771C20.4961 12.912 20.2824 13.1395 20.0696 13.368C19.8617 13.5914 19.6547 13.8157 19.4229 14.0565C17.4722 14.0702 15.5459 14.0672 13.6196 14.064C13.5011 14.0638 13.3815 14.072 13.2642 14.06C12.8809 14.0206 12.5751 13.7123 12.5708 13.3701C12.5666 13.0305 12.8697 12.705 13.252 12.6707C13.502 12.6482 13.7554 12.6629 14.0073 12.6631C16.2152 12.6652 18.423 12.6678 20.6701 12.6771Z" fill="#68251E"/>
<path d="M17.8879 34.3623C17.3024 33.7591 16.7169 33.1559 16.1177 32.5271C16.9149 31.8187 17.7259 31.1358 18.5681 30.4497C19.0656 30.992 19.5318 31.5375 19.9839 32.1232C19.4967 32.7152 19.0336 33.2762 18.5453 33.8144C18.3554 34.0236 18.1087 34.1812 17.8879 34.3623Z" fill="#FCC493"/>
<path d="M10.7791 9.49643C10.9419 9.12473 11.2127 9.00077 11.5734 9.00296C12.6816 9.00968 13.7899 9.00118 14.8982 9.00754C15.3798 9.0103 15.7039 9.30222 15.7035 9.70629C15.7031 10.0907 15.3985 10.3921 14.9329 10.3984C13.7953 10.414 12.6571 10.416 11.5195 10.3984C10.9743 10.3899 10.7638 10.1183 10.7791 9.49643Z" fill="#68251E"/>
<path d="M17.7353 16.3306C17.58 16.7777 17.3887 17.2221 17.1852 17.6963C15.9004 17.7248 14.6278 17.7294 13.3554 17.7193C12.7847 17.7147 12.4458 17.2551 12.64 16.777C12.7697 16.4576 13.0248 16.3612 13.3514 16.363C14.4759 16.369 15.6005 16.3677 16.7251 16.3631C17.0499 16.3618 17.3746 16.3402 17.7353 16.3306Z" fill="#68251E"/>
<path d="M6.83957 13.7693C6.59199 13.8883 6.3702 14.0524 6.14336 14.0597C5.21004 14.0898 4.27454 14.0912 3.34135 14.0592C3.09957 14.051 2.7927 13.9471 2.63833 13.7763C2.25428 13.3513 2.5718 12.6906 3.18657 12.6667C4.22309 12.6264 5.26284 12.6325 6.30003 12.6618C6.85056 12.6773 7.05492 13.1156 6.83957 13.7693Z" fill="#C8934E"/>
<path d="M4.71682 10.4227C4.22858 10.4226 3.78466 10.4296 3.34105 10.4207C2.8106 10.4101 2.49507 10.1412 2.49269 9.71574C2.49012 9.25526 2.79337 9.00328 3.3611 9.00195C4.27825 8.99982 5.19541 8.99875 6.11254 9.00239C6.66045 9.00456 6.93872 9.24167 6.9435 9.6962C6.94832 10.1539 6.68319 10.4023 6.13691 10.4194C5.67878 10.4338 5.21985 10.4226 4.71682 10.4227Z" fill="#C8934E"/>
<path d="M6.19908 36.5879C5.19631 36.5879 4.23471 36.5894 3.27312 36.5873C2.78714 36.5862 2.48787 36.3367 2.49273 35.9453C2.49806 35.5162 2.79047 35.2552 3.29157 35.2527C4.26793 35.2477 5.24436 35.2479 6.22072 35.2527C6.72221 35.2552 6.93018 35.4451 6.94301 35.8878C6.95681 36.3644 6.781 36.5396 6.19908 36.5879Z" fill="#C8934E"/>
<path d="M5.60269 23.6836C5.82433 23.6837 6.0022 23.6822 6.18004 23.684C6.66259 23.6887 6.93861 23.9289 6.94311 24.3461C6.94817 24.8153 6.73641 25.0168 6.21249 25.0192C5.21948 25.0237 4.22643 25.0229 3.23342 25.0194C2.78367 25.0179 2.4892 24.7582 2.49271 24.3805C2.49657 23.9645 2.78164 23.6911 3.24681 23.6861C4.01743 23.6777 4.7882 23.6837 5.60269 23.6836Z" fill="#C8934E"/>
<path d="M4.45001 32.9387C4.00545 32.9385 3.605 32.9486 3.20529 32.9356C2.75825 32.9211 2.4723 32.6156 2.49273 32.2004C2.51007 31.8478 2.80354 31.6043 3.23038 31.6029C4.22327 31.5995 5.21619 31.5987 6.20908 31.6031C6.73524 31.6053 6.94665 31.8043 6.94321 32.2726C6.94012 32.692 6.66565 32.9354 6.18385 32.9379C5.62073 32.9409 5.05758 32.9386 4.45001 32.9387Z" fill="#C8934E"/>
<path d="M2.5 17.1529C2.52325 16.6129 2.74259 16.3883 3.22943 16.3863C4.2229 16.3824 5.2164 16.3822 6.20987 16.3863C6.71895 16.3883 6.92821 16.5732 6.94288 17.0129C6.95671 17.4276 6.6774 17.7142 6.21324 17.7189C5.21986 17.729 4.2263 17.7211 3.23283 17.7225C2.85699 17.723 2.62149 17.5376 2.5 17.1529Z" fill="#C8934E"/>
<path d="M16.3476 20.2063C16.3404 20.6412 16.29 21.0754 16.216 21.5383C15.3069 21.5647 14.4213 21.5624 13.5357 21.5599C12.9059 21.5582 12.5833 21.335 12.5758 20.8959C12.5681 20.4452 12.9072 20.206 13.5588 20.2054C14.474 20.2046 15.3892 20.2054 16.3476 20.2063Z" fill="#68251E"/>
<path d="M21.8034 33.6395C22.7509 34.1177 23.665 34.684 24.6518 35.0587C28.7345 36.6089 32.7003 36.3069 36.4249 34.0026C39.8567 31.8795 41.8871 28.767 42.5487 24.7757C42.5752 24.6158 42.6005 24.4558 42.6301 24.2583C42.69 24.3382 42.7947 24.4555 42.795 24.573C42.8033 29.0588 42.8022 33.5445 42.8017 38.0303C42.8016 38.7895 42.5617 39.4368 41.9159 39.9231C41.7786 39.958 41.6457 39.9679 41.5128 39.9679C33.1904 39.9684 24.8681 39.968 16.5044 39.9618C16.8704 39.4424 17.2777 38.9288 17.7257 38.4007C18.239 38.723 18.3702 38.7133 18.787 38.3031C19.0179 38.0758 19.2456 37.8451 19.4747 37.6159C20.2233 36.8669 20.2233 36.8669 19.6925 36.0424C20.4142 35.233 21.1088 34.4363 21.8034 33.6395Z" fill="#EEDFBB"/>
<path d="M19.6655 36.0552C20.2233 36.867 20.2233 36.867 19.4748 37.6159C19.2457 37.8452 19.018 38.0758 18.787 38.3031C18.3702 38.7133 18.239 38.723 17.7377 38.373C17.2775 37.9144 16.8439 37.471 16.4159 37.0223C16.3056 36.9066 16.2128 36.774 16.1074 36.6189C16.6956 35.8977 17.2884 35.2068 17.9148 34.4883C18.074 34.5607 18.2076 34.6521 18.3235 34.7622C18.7739 35.19 19.2187 35.6237 19.6655 36.0552Z" fill="#9B5A45"/>
<path d="M39.3005 25.3378C39.0509 25.9855 38.8083 26.5996 38.5033 27.2356C34.2933 27.2571 30.1459 27.2566 25.9984 27.2572C25.8656 27.2572 25.7294 27.2524 25.6007 27.2786C25.2188 27.3565 24.9909 27.5869 25.0097 27.9895C25.0283 28.3889 25.2731 28.6026 25.6579 28.6536C25.8036 28.673 25.9537 28.6601 26.1018 28.6603C29.9528 28.6649 33.8038 28.6692 37.6547 28.6736C37.1874 29.219 36.7201 29.7645 36.2148 30.3421C36.1591 30.3983 36.1412 30.4223 36.1233 30.4464C36.1233 30.4464 36.129 30.447 36.1065 30.4525C36.0667 30.4834 36.0494 30.5088 36.032 30.5342C36.032 30.5342 36.0387 30.5344 36.0151 30.5382C35.9752 30.5688 35.9589 30.5956 35.9426 30.6223C35.9426 30.6223 35.9492 30.6226 35.9243 30.625C35.884 30.6551 35.8687 30.6828 35.8533 30.7105C35.8533 30.7105 35.8604 30.7102 35.8322 30.7072C35.7617 30.7371 35.7194 30.77 35.6771 30.803C35.6263 30.836 35.5754 30.8691 35.512 30.9208C34.1384 31.8712 32.6709 32.5268 31.0243 32.7824C26.0605 33.5527 21.2652 30.6189 19.7682 25.8035C18.8174 22.745 19.2322 19.836 21.0419 17.1132C22.9952 17.0925 24.8892 17.0964 26.7831 17.0922C27.2549 17.0911 27.5529 16.8262 27.5724 16.425C27.5906 16.0513 27.2685 15.7341 26.8278 15.698C26.7101 15.6883 26.5912 15.6947 26.4728 15.6944C25.0376 15.6913 23.6024 15.6883 22.1672 15.6853C23.5073 14.2458 25.157 13.3377 27.0525 12.8653C32.0563 11.6182 37.2894 14.4324 39.0134 19.2907C39.038 19.3599 39.0529 19.4325 39.0319 19.5397C34.6769 19.5766 30.3623 19.5773 26.0477 19.5784C25.8995 19.5784 25.7498 19.5701 25.6034 19.5873C25.2419 19.6299 25.0426 19.8588 25.0136 20.2039C24.9818 20.5806 25.1886 20.822 25.5487 20.9146C25.6748 20.9471 25.8139 20.9336 25.9471 20.9336C30.4396 20.934 34.9321 20.9334 39.4246 20.933C39.4819 21.7342 39.5392 22.5353 39.5491 23.3772C37.7834 23.4176 36.065 23.4173 34.3466 23.4171C33.9022 23.4171 33.4574 23.4068 33.0134 23.4207C32.5674 23.4347 32.2962 23.7027 32.2938 24.0997C32.2913 24.5144 32.5406 24.7537 33.0035 24.7756C33.1365 24.7819 33.2701 24.7772 33.4034 24.7774C35.4032 24.7802 37.403 24.783 39.4028 24.7858C39.371 24.9586 39.3393 25.1314 39.3005 25.3378ZM25.8793 23.417C25.3104 23.4385 25.0234 23.6576 25.0067 24.0831C24.9921 24.456 25.2616 24.7629 25.6631 24.7663C27.0384 24.7777 28.4138 24.7777 29.7891 24.7657C30.1823 24.7623 30.4297 24.4876 30.4345 24.1205C30.4391 23.7605 30.1925 23.4757 29.8214 23.4254C29.705 23.4096 29.5852 23.4173 29.4669 23.4173C28.2986 23.4168 27.1303 23.417 25.8793 23.417Z" fill="#EEDFBB"/>
<path d="M39.4265 20.8956C34.932 20.9333 30.4395 20.9338 25.947 20.9334C25.8138 20.9334 25.6747 20.9469 25.5486 20.9145C25.1885 20.8219 24.9817 20.5804 25.0134 20.2038C25.0425 19.8587 25.2418 19.6298 25.6033 19.5872C25.7497 19.57 25.8994 19.5783 26.0476 19.5783C30.3622 19.5771 34.6768 19.5764 39.0342 19.5728C39.1941 19.9993 39.3113 20.4288 39.4265 20.8956Z" fill="#D3A56C"/>
<path d="M39.4119 24.7467C37.4032 24.7826 35.4034 24.7798 33.4036 24.777C33.2703 24.7768 33.1367 24.7815 33.0037 24.7752C32.5408 24.7533 32.2915 24.5141 32.294 24.0993C32.2964 23.7024 32.5676 23.4344 33.0136 23.4204C33.4576 23.4065 33.9023 23.4167 34.3468 23.4168C36.0651 23.4169 37.7835 23.4173 39.5423 23.4181C39.5287 23.8485 39.4748 24.2782 39.4119 24.7467Z" fill="#D3A56C"/>
<path d="M22.1412 15.6999C23.6019 15.6881 25.0371 15.6911 26.4723 15.6942C26.5907 15.6944 26.7096 15.6881 26.8273 15.6977C27.268 15.7338 27.5901 16.0511 27.5719 16.4248C27.5524 16.826 27.2545 17.0909 26.7826 17.0919C24.8887 17.0962 22.9947 17.0922 21.061 17.0881C21.3861 16.6283 21.7509 16.1715 22.1412 15.6999Z" fill="#D3A56C"/>
<path d="M19.6926 36.0426C19.2187 35.6238 18.7739 35.1901 18.3236 34.7623C18.2077 34.6522 18.0741 34.5608 17.9183 34.4578C17.888 34.4394 17.888 34.4241 17.8882 34.3856C18.1093 34.1815 18.3561 34.0239 18.5459 33.8147C19.0342 33.2765 19.4973 32.7155 19.9977 32.1504C20.3915 32.4552 20.7581 32.7732 21.181 33.106C21.2769 33.1203 21.3164 33.12 21.356 33.1196C21.356 33.1196 21.3559 33.1174 21.3548 33.1185C21.4941 33.276 21.6346 33.4325 21.7892 33.6143C21.1089 34.4364 20.4143 35.2332 19.6926 36.0426Z" fill="#DDA077"/>
<path d="M21.3435 33.0984C21.3163 33.1185 21.2767 33.1188 21.2075 33.1174C21.229 33.1033 21.28 33.091 21.3435 33.0984Z" fill="#91D8F9"/>
<path d="M37.6792 28.6227C33.8035 28.6346 29.9525 28.6302 26.1015 28.6256C25.9534 28.6255 25.8033 28.6383 25.6576 28.619C25.2728 28.5679 25.028 28.3543 25.0094 27.9549C24.9906 27.5523 25.2185 27.3218 25.6004 27.244C25.7291 27.2177 25.8654 27.2225 25.9982 27.2225C30.1456 27.2219 34.293 27.2225 38.4813 27.2249C38.2494 27.6867 37.9767 28.1465 37.6792 28.6227Z" fill="#BC7E48"/>
<path d="M35.7041 30.8008C35.7184 30.77 35.7606 30.737 35.8306 30.7036C35.8162 30.735 35.7741 30.7669 35.7041 30.8008Z" fill="#B2E5FA"/>
<path d="M35.8744 30.7011C35.8682 30.6827 35.8835 30.655 35.9234 30.6216C35.9305 30.6412 35.9132 30.6666 35.8744 30.7011Z" fill="#B2E5FA"/>
<path d="M35.9638 30.6132C35.9586 30.5958 35.9749 30.5691 36.0146 30.5352C36.0204 30.5532 36.0029 30.5785 35.9638 30.6132Z" fill="#B2E5FA"/>
<path d="M36.0528 30.5247C36.0489 30.5088 36.0663 30.4834 36.1059 30.4497C36.11 30.466 36.092 30.4907 36.0528 30.5247Z" fill="#B2E5FA"/>
<path d="M36.1433 30.4366C36.1408 30.4219 36.1587 30.3979 36.1982 30.3662C36.2011 30.3815 36.1824 30.4043 36.1433 30.4366Z" fill="#B2E5FA"/>
<path d="M25.9203 23.3825C27.13 23.3824 28.2983 23.3823 29.4667 23.3827C29.5849 23.3828 29.7047 23.375 29.8211 23.3908C30.1922 23.4412 30.4388 23.7259 30.4342 24.086C30.4294 24.453 30.182 24.7277 29.7888 24.7312C28.4135 24.7431 27.0381 24.7431 25.6628 24.7317C25.2613 24.7284 24.9918 24.4214 25.0064 24.0485C25.0231 23.623 25.3101 23.404 25.9203 23.3825Z" fill="#BC7E48"/>
<circle cx="3.29355" cy="2.93711" r="0.800875" fill="#3E1213"/>
<circle cx="6.40732" cy="2.95078" r="0.800875" fill="#3E1213"/>
<circle cx="9.34336" cy="2.95078" r="0.800875" fill="#3E1213"/>
</svg>
