<svg width="51" height="51" viewBox="0 0 51 51" fill="none" xmlns="http://www.w3.org/2000/svg">
<path d="M16.6686 24.3742C15.4244 24.3742 14.2302 24.3339 13.0403 24.3884C12.2477 24.4248 12.0149 24.0202 11.9012 23.3358C11.8845 23.2349 11.8987 23.1288 11.8987 23.0252C11.8987 15.75 11.8986 8.47491 11.8988 1.19978C11.8988 0.229386 12.1286 7.84799e-06 13.0976 7.22567e-06C25.4013 5.87581e-07 37.7051 -1.65572e-05 50.0089 4.62972e-05C50.8383 5.05497e-05 50.9999 0.1592 50.9999 0.977069C51 8.45956 51 15.9421 50.9999 23.4246C50.9999 24.1216 50.7486 24.3741 50.0547 24.3741C38.9433 24.3743 27.8319 24.3742 16.6686 24.3742ZM17.9367 19.1207C18.1915 19.7455 18.4463 20.3703 18.715 21.0293C18.722 21.03 18.7903 21.0429 18.8585 21.043C27.2416 21.0442 35.6247 21.042 44.0078 21.0527C44.3946 21.0532 44.4507 20.8882 44.4741 20.5635C44.5643 19.3082 45.8669 17.9189 47.0868 17.8598C47.6325 17.8334 47.6958 17.6202 47.6941 17.1691C47.6809 13.8332 47.6873 10.4972 47.6859 7.16123C47.6858 6.97653 47.6706 6.79184 47.6629 6.61605C45.7068 6.36322 44.6284 5.28582 44.3909 3.35322C35.7864 3.35322 27.1898 3.35322 18.5879 3.35322C18.5682 3.4544 18.5558 3.5209 18.5422 3.58713C18.1826 5.33015 17.2622 6.34647 15.7935 6.51549C15.3599 6.5654 15.3052 6.73159 15.3063 7.09572C15.3161 10.5008 15.3117 13.9059 15.3134 17.311C15.3134 17.4772 15.3317 17.6434 15.3419 17.8183C16.4234 17.8377 17.2612 18.2446 17.9367 19.1207Z" fill="#C68E7A"/>
<path d="M10.0441 33.811C12.7706 33.8117 15.4971 33.8134 18.2235 33.8127C19.6179 33.8123 20.697 34.4165 21.468 35.5541C22.2606 36.7235 23.2401 37.618 24.6652 37.9192C24.8141 37.9506 24.9701 37.9597 25.1229 37.9601C26.3136 37.9633 27.5049 37.9389 28.6948 37.9681C29.9818 37.9998 30.8907 38.6238 31.3668 39.8136C30.951 40.0221 30.6169 40.2182 30.5647 40.7192C30.4264 42.0461 29.7578 42.6308 28.4084 42.6311C24.7627 42.632 21.1169 42.6314 17.4712 42.6316C17.3158 42.6316 17.159 42.622 17.005 42.6376C16.5316 42.6856 16.1409 43.1007 16.1564 43.5273C16.1723 43.9649 16.5214 44.2681 17.0373 44.2895C17.1581 44.2946 17.2792 44.2912 17.4001 44.2912C21.0631 44.2913 24.7275 44.2303 28.3885 44.3147C30.506 44.3635 32.3173 42.6996 32.2336 40.5484C33.7686 40.2679 35.3048 39.9939 36.8382 39.7048C38.2238 39.4436 39.6063 39.166 40.9902 38.8953C41.8627 38.7247 42.7352 38.5536 43.6077 38.3828C44.4923 38.2096 45.8106 39.1124 46.0232 40.0241C46.3582 41.4615 45.707 42.4075 44.1906 43.0374C42.7723 43.6266 41.3595 44.2291 39.9457 44.8291C38.0851 45.6187 36.2246 46.4087 34.3664 47.2039C32.8462 47.8544 31.3523 48.5755 29.8021 49.1438C28.8853 49.4799 27.8908 49.6739 26.9156 49.7654C25.1755 49.9285 23.4652 49.5631 21.7532 49.2797C20.4537 49.0647 19.1402 48.9362 17.8365 48.7448C16.5534 48.5564 15.2765 48.3264 13.9939 48.1351C12.9417 47.9783 11.885 47.8522 10.8304 47.7111C10.5974 47.6799 10.3652 47.6425 10.0836 47.5606C10.0378 42.9458 10.0409 38.3784 10.0441 33.811Z" fill="#FFCFAB"/>
<path d="M10.0383 33.7627C10.041 38.3785 10.0379 42.9459 10.0395 47.5616C10.0442 48.7297 10.0442 49.8495 10.0442 50.9999C6.6771 50.9999 3.3536 50.9999 0 50.9999C0 44.1854 0 37.372 0 30.5264C3.32093 30.5264 6.64443 30.5264 10.0325 30.5264C10.0325 31.5864 10.0325 32.6504 10.0383 33.7627Z" fill="#C68C7A"/>
<path d="M32.2303 40.5101C32.3176 42.6996 30.5063 44.3635 28.3888 44.3147C24.7278 44.2303 21.0634 44.2913 17.4004 44.2912C17.2795 44.2912 17.1584 44.2946 17.0376 44.2895C16.5216 44.2681 16.1726 43.9649 16.1567 43.5273C16.1412 43.1007 16.5319 42.6856 17.0053 42.6376C17.1593 42.622 17.316 42.6316 17.4715 42.6316C21.1172 42.6314 24.7629 42.632 28.4086 42.6311C29.7581 42.6308 30.4267 42.0461 30.5649 40.7192C30.6172 40.2182 30.9513 40.0221 31.3824 39.8477C31.7178 39.9889 32.1518 40.0046 32.2303 40.5101Z" fill="#FA967A"/>
<path d="M17.9162 19.0899C17.2616 18.2449 16.4238 17.838 15.3423 17.8186C15.332 17.6437 15.3138 17.4775 15.3137 17.3113C15.3121 13.9062 15.3165 10.5011 15.3067 7.09602C15.3056 6.73189 15.3603 6.56569 15.7939 6.51579C17.2626 6.34676 18.1829 5.33045 18.5425 3.58743C18.5562 3.5212 18.5686 3.4547 18.5883 3.35352C27.1902 3.35352 35.7868 3.35352 44.3912 3.35352C44.6288 5.28611 45.7072 6.36351 47.6632 6.61634C47.671 6.79214 47.6862 6.97683 47.6863 7.16153C47.6877 10.4975 47.6813 13.8335 47.6944 17.1693C47.6962 17.6205 47.6329 17.8337 47.0871 17.8601C45.8673 17.9192 44.5646 19.3085 44.4744 20.5638C44.4511 20.8885 44.395 21.0535 44.0081 21.053C35.6251 21.0423 27.242 21.0445 18.8589 21.0432C18.7906 21.0432 18.7224 21.0303 18.7154 21.0296C18.4466 20.3706 18.1919 19.7458 17.9162 19.0899ZM27.9544 16.0439C28.9548 16.9308 30.0933 17.4385 31.4595 17.4341C34.5584 17.4241 37.1933 14.9025 36.6579 11.2868C36.1679 7.9779 32.927 6.24344 29.9088 7.17204C26.2496 8.29788 24.8096 13.0233 27.9544 16.0439ZM43.6802 13.5803C44.3259 12.8437 44.4487 11.9766 44.0164 11.2056C43.5926 10.4495 42.7939 10.1091 41.8411 10.2782C40.9667 10.4335 40.1155 11.6391 40.3372 12.461C40.7714 14.0709 42.3639 14.6462 43.6802 13.5803ZM19.493 13.7322C19.6119 13.8016 19.7264 13.8802 19.8504 13.939C20.7372 14.3601 21.827 14.0368 22.3412 13.2039C22.8557 12.3705 22.6192 11.2305 21.8444 10.5992C21.2684 10.1297 19.8891 10.1212 19.2769 10.7972C18.4914 11.6646 18.524 12.7905 19.493 13.7322Z" fill="#EEDFBB"/>
<path d="M27.9267 16.0198C24.8099 13.0231 26.2499 8.29764 29.9091 7.1718C32.9273 6.2432 36.1681 7.97766 36.6582 11.2866C37.1936 14.9023 34.5587 17.4239 31.4598 17.4339C30.0935 17.4383 28.955 16.9306 27.9267 16.0198Z" fill="#68251E"/>
<path d="M43.6526 13.6066C42.3639 14.6459 40.7716 14.0707 40.3374 12.461C40.1157 11.6391 40.9669 10.4336 41.8411 10.2784C42.7939 10.1092 43.5924 10.4496 44.0163 11.2056C44.4485 11.9766 44.3257 12.8435 43.6526 13.6066Z" fill="#68251E"/>
<path d="M19.4626 13.7086C18.5241 12.7902 18.4915 11.6644 19.2769 10.7971C19.8891 10.1211 21.2683 10.1297 21.8442 10.5991C22.6189 11.2303 22.8554 12.3702 22.3409 13.2035C21.8268 14.0363 20.7371 14.3596 19.8504 13.9386C19.7264 13.8797 19.6119 13.8012 19.4626 13.7086Z" fill="#68251E"/>
</svg>
